<?xml version="1.0" encoding="iso-8859-1"?>
<!-- Uploaded to: SVG Repo, www.svgrepo.com, Generator: SVG Repo Mixer Tools -->
<svg height="800px" width="800px" version="1.1" id="Layer_1" xmlns="http://www.w3.org/2000/svg" xmlns:xlink="http://www.w3.org/1999/xlink" 
	 viewBox="0 0 390.206 390.206" xml:space="preserve">
<path style="fill:#FFFFFF;" d="M65.819,368.549h166.4v-81.325c0-5.947,4.848-10.861,10.861-10.861h81.325V21.657H65.819V368.549z"/>
<polygon style="fill:#56ACE0;" points="254.457,353.358 309.213,298.085 254.457,298.085 "/>
<path style="fill:#194F82;" d="M335.718,0H55.023c-5.947,0-10.861,4.848-10.861,10.861v368.485c0,5.947,4.848,10.861,10.861,10.861
	h188.057c2.715,0,5.43-1.099,7.564-3.232l92.121-92.121c2.198-2.198,3.232-4.848,3.232-7.564V10.861
	C346.578,4.848,341.73,0,335.718,0z M254.457,353.358v-55.273h54.756L254.457,353.358z M324.922,276.428h-81.325
	c-5.947,0-10.861,4.848-10.861,10.861v81.325H65.819V21.657H324.34v254.707h0.582V276.428z"/>
<path style="fill:#FFC10D;" d="M243.338,276.428h59.604V43.378H87.281v303.515h145.261v-59.604
	C232.542,281.277,237.39,276.428,243.338,276.428z"/>
<g>
	<path style="fill:#194F82;" d="M129.237,55.273h-25.471c-5.43,0-10.279,4.331-10.279,10.279s4.331,10.279,10.279,10.279h25.471
		c5.43,0,10.279-4.331,10.279-10.279C139.516,59.604,134.667,55.273,129.237,55.273z"/>
	<path style="fill:#194F82;" d="M174.748,75.895H286.91c5.43,0,10.279-4.331,10.279-10.279s-4.331-10.279-10.279-10.279H174.748
		c-5.43,0-10.279,4.331-10.279,10.279C164.469,71.564,169.382,75.895,174.748,75.895z"/>
	<path style="fill:#194F82;" d="M129.237,110.028h-25.471c-5.43,0-10.279,4.331-10.279,10.279c0,5.43,4.331,10.279,10.279,10.279
		h25.471c5.43,0,10.279-4.331,10.279-10.279C139.516,114.877,134.667,110.028,129.237,110.028z"/>
	<path style="fill:#194F82;" d="M174.748,130.586H286.91c5.43,0,10.279-4.331,10.279-10.279c0-5.43-4.331-10.279-10.279-10.279
		H174.748c-5.43,0-10.279,4.331-10.279,10.279C164.469,125.737,169.382,130.586,174.748,130.586z"/>
	<path style="fill:#194F82;" d="M129.237,164.784h-25.471c-5.43,0-10.279,4.331-10.279,10.279c0,5.43,4.331,10.279,10.279,10.279
		h25.471c5.43,0,10.279-4.331,10.279-10.279C139.516,169.115,134.667,164.784,129.237,164.784z"/>
	<path style="fill:#194F82;" d="M174.748,184.824H286.91c5.43,0,10.279-4.331,10.279-10.279c0-5.43-4.331-10.279-10.279-10.279
		H174.748c-5.43,0-10.279,4.331-10.279,10.279C164.469,180.493,169.382,184.824,174.748,184.824z"/>
	<path style="fill:#194F82;" d="M129.237,219.475h-25.471c-5.43,0-10.279,4.331-10.279,10.279c0,5.43,4.331,10.279,10.279,10.279
		h25.471c5.43,0,10.279-4.331,10.279-10.279C139.516,223.806,134.667,219.475,129.237,219.475z"/>
	<path style="fill:#194F82;" d="M286.974,239.515c5.43,0,10.279-4.331,10.279-10.279c0-5.43-4.331-10.279-10.279-10.279H174.748
		c-5.43,0-10.279,4.331-10.279,10.279c0,5.43,4.331,10.279,10.279,10.279H286.974z"/>
</g>
</svg>