<svg width="30" height="29" viewBox="0 0 30 29" fill="none" xmlns="http://www.w3.org/2000/svg">
<g filter="url(#filter0_i_535_14201)">
<rect x="0.5" width="8" height="8" rx="0.75" fill="#C6DEEB"/>
</g>
<g filter="url(#filter1_d_535_14201)">
<path fill-rule="evenodd" clip-rule="evenodd" d="M7.05168 2.46337C7.20514 2.60244 7.2168 2.83959 7.07772 2.99306L3.91833 6.47922C3.75942 6.65456 3.47981 6.64069 3.33904 6.45048L2.06773 4.73273C1.94453 4.56626 1.9796 4.33143 2.14608 4.20822L2.53252 3.92221C2.69899 3.79901 2.93383 3.83408 3.05703 4.00055L3.43522 4.51155C3.576 4.70177 3.8556 4.71564 4.01452 4.54029L6.16575 2.16656C6.30482 2.0131 6.54197 2.00144 6.69544 2.14052L7.05168 2.46337Z" fill="white"/>
</g>
<g filter="url(#filter2_i_535_14201)">
<rect x="10.5" y="3" width="19" height="2" rx="1" fill="#2D7FA9"/>
</g>
<g filter="url(#filter3_i_535_14201)">
<rect x="0.5" y="10" width="8" height="8" rx="0.75" fill="#C6DEEB"/>
</g>
<g filter="url(#filter4_d_535_14201)">
<path fill-rule="evenodd" clip-rule="evenodd" d="M7.05168 12.4634C7.20514 12.6024 7.2168 12.8396 7.07772 12.9931L3.91833 16.4792C3.75942 16.6546 3.47981 16.6407 3.33904 16.4505L2.06773 14.7327C1.94453 14.5663 1.9796 14.3314 2.14608 14.2082L2.53252 13.9222C2.69899 13.799 2.93383 13.8341 3.05703 14.0006L3.43522 14.5116C3.576 14.7018 3.8556 14.7156 4.01452 14.5403L6.16575 12.1666C6.30482 12.0131 6.54197 12.0014 6.69544 12.1405L7.05168 12.4634Z" fill="white"/>
</g>
<g filter="url(#filter5_i_535_14201)">
<rect x="10.5" y="13" width="19" height="2" rx="1" fill="#2D7FA9"/>
</g>
<g filter="url(#filter6_i_535_14201)">
<rect x="0.5" y="20" width="8" height="8" rx="0.75" fill="#C6DEEB"/>
</g>
<g filter="url(#filter7_d_535_14201)">
<path fill-rule="evenodd" clip-rule="evenodd" d="M7.05168 22.4634C7.20514 22.6024 7.2168 22.8396 7.07772 22.9931L3.91833 26.4792C3.75942 26.6546 3.47981 26.6407 3.33904 26.4505L2.06773 24.7327C1.94453 24.5663 1.9796 24.3314 2.14608 24.2082L2.53252 23.9222C2.69899 23.799 2.93383 23.8341 3.05703 24.0006L3.43522 24.5116C3.576 24.7018 3.8556 24.7156 4.01452 24.5403L6.16575 22.1666C6.30482 22.0131 6.54197 22.0014 6.69544 22.1405L7.05168 22.4634Z" fill="white"/>
</g>
<g filter="url(#filter8_i_535_14201)">
<rect x="10.5" y="23" width="19" height="2" rx="1" fill="#2D7FA9"/>
</g>
<defs>
<filter id="filter0_i_535_14201" x="0.5" y="0" width="8" height="8" filterUnits="userSpaceOnUse" color-interpolation-filters="sRGB">
<feFlood flood-opacity="0" result="BackgroundImageFix"/>
<feBlend mode="normal" in="SourceGraphic" in2="BackgroundImageFix" result="shape"/>
<feColorMatrix in="SourceAlpha" type="matrix" values="0 0 0 0 0 0 0 0 0 0 0 0 0 0 0 0 0 0 127 0" result="hardAlpha"/>
<feOffset/>
<feGaussianBlur stdDeviation="1.5"/>
<feComposite in2="hardAlpha" operator="arithmetic" k2="-1" k3="1"/>
<feColorMatrix type="matrix" values="0 0 0 0 0.176471 0 0 0 0 0.498039 0 0 0 0 0.662745 0 0 0 1 0"/>
<feBlend mode="normal" in2="shape" result="effect1_innerShadow_535_14201"/>
</filter>
<filter id="filter1_d_535_14201" x="0.419141" y="0.468457" width="8.33066" height="7.70908" filterUnits="userSpaceOnUse" color-interpolation-filters="sRGB">
<feFlood flood-opacity="0" result="BackgroundImageFix"/>
<feColorMatrix in="SourceAlpha" type="matrix" values="0 0 0 0 0 0 0 0 0 0 0 0 0 0 0 0 0 0 127 0" result="hardAlpha"/>
<feOffset/>
<feGaussianBlur stdDeviation="0.7875"/>
<feComposite in2="hardAlpha" operator="out"/>
<feColorMatrix type="matrix" values="0 0 0 0 0 0 0 0 0 0 0 0 0 0 0 0 0 0 0.25 0"/>
<feBlend mode="normal" in2="BackgroundImageFix" result="effect1_dropShadow_535_14201"/>
<feBlend mode="normal" in="SourceGraphic" in2="effect1_dropShadow_535_14201" result="shape"/>
</filter>
<filter id="filter2_i_535_14201" x="10.5" y="3" width="20" height="3.1" filterUnits="userSpaceOnUse" color-interpolation-filters="sRGB">
<feFlood flood-opacity="0" result="BackgroundImageFix"/>
<feBlend mode="normal" in="SourceGraphic" in2="BackgroundImageFix" result="shape"/>
<feColorMatrix in="SourceAlpha" type="matrix" values="0 0 0 0 0 0 0 0 0 0 0 0 0 0 0 0 0 0 127 0" result="hardAlpha"/>
<feOffset dx="1" dy="2"/>
<feGaussianBlur stdDeviation="0.55"/>
<feComposite in2="hardAlpha" operator="arithmetic" k2="-1" k3="1"/>
<feColorMatrix type="matrix" values="0 0 0 0 0.0545834 0 0 0 0 0.26072 0 0 0 0 0.368083 0 0 0 0.3 0"/>
<feBlend mode="normal" in2="shape" result="effect1_innerShadow_535_14201"/>
</filter>
<filter id="filter3_i_535_14201" x="0.5" y="10" width="8" height="8" filterUnits="userSpaceOnUse" color-interpolation-filters="sRGB">
<feFlood flood-opacity="0" result="BackgroundImageFix"/>
<feBlend mode="normal" in="SourceGraphic" in2="BackgroundImageFix" result="shape"/>
<feColorMatrix in="SourceAlpha" type="matrix" values="0 0 0 0 0 0 0 0 0 0 0 0 0 0 0 0 0 0 127 0" result="hardAlpha"/>
<feOffset/>
<feGaussianBlur stdDeviation="1.5"/>
<feComposite in2="hardAlpha" operator="arithmetic" k2="-1" k3="1"/>
<feColorMatrix type="matrix" values="0 0 0 0 0.176471 0 0 0 0 0.498039 0 0 0 0 0.662745 0 0 0 1 0"/>
<feBlend mode="normal" in2="shape" result="effect1_innerShadow_535_14201"/>
</filter>
<filter id="filter4_d_535_14201" x="0.419141" y="10.4685" width="8.33066" height="7.70908" filterUnits="userSpaceOnUse" color-interpolation-filters="sRGB">
<feFlood flood-opacity="0" result="BackgroundImageFix"/>
<feColorMatrix in="SourceAlpha" type="matrix" values="0 0 0 0 0 0 0 0 0 0 0 0 0 0 0 0 0 0 127 0" result="hardAlpha"/>
<feOffset/>
<feGaussianBlur stdDeviation="0.7875"/>
<feComposite in2="hardAlpha" operator="out"/>
<feColorMatrix type="matrix" values="0 0 0 0 0 0 0 0 0 0 0 0 0 0 0 0 0 0 0.25 0"/>
<feBlend mode="normal" in2="BackgroundImageFix" result="effect1_dropShadow_535_14201"/>
<feBlend mode="normal" in="SourceGraphic" in2="effect1_dropShadow_535_14201" result="shape"/>
</filter>
<filter id="filter5_i_535_14201" x="10.5" y="13" width="20" height="3.1" filterUnits="userSpaceOnUse" color-interpolation-filters="sRGB">
<feFlood flood-opacity="0" result="BackgroundImageFix"/>
<feBlend mode="normal" in="SourceGraphic" in2="BackgroundImageFix" result="shape"/>
<feColorMatrix in="SourceAlpha" type="matrix" values="0 0 0 0 0 0 0 0 0 0 0 0 0 0 0 0 0 0 127 0" result="hardAlpha"/>
<feOffset dx="1" dy="2"/>
<feGaussianBlur stdDeviation="0.55"/>
<feComposite in2="hardAlpha" operator="arithmetic" k2="-1" k3="1"/>
<feColorMatrix type="matrix" values="0 0 0 0 0.0545834 0 0 0 0 0.26072 0 0 0 0 0.368083 0 0 0 0.3 0"/>
<feBlend mode="normal" in2="shape" result="effect1_innerShadow_535_14201"/>
</filter>
<filter id="filter6_i_535_14201" x="0.5" y="20" width="8" height="8" filterUnits="userSpaceOnUse" color-interpolation-filters="sRGB">
<feFlood flood-opacity="0" result="BackgroundImageFix"/>
<feBlend mode="normal" in="SourceGraphic" in2="BackgroundImageFix" result="shape"/>
<feColorMatrix in="SourceAlpha" type="matrix" values="0 0 0 0 0 0 0 0 0 0 0 0 0 0 0 0 0 0 127 0" result="hardAlpha"/>
<feOffset/>
<feGaussianBlur stdDeviation="1.5"/>
<feComposite in2="hardAlpha" operator="arithmetic" k2="-1" k3="1"/>
<feColorMatrix type="matrix" values="0 0 0 0 0.176471 0 0 0 0 0.498039 0 0 0 0 0.662745 0 0 0 1 0"/>
<feBlend mode="normal" in2="shape" result="effect1_innerShadow_535_14201"/>
</filter>
<filter id="filter7_d_535_14201" x="0.419141" y="20.4685" width="8.33066" height="7.70908" filterUnits="userSpaceOnUse" color-interpolation-filters="sRGB">
<feFlood flood-opacity="0" result="BackgroundImageFix"/>
<feColorMatrix in="SourceAlpha" type="matrix" values="0 0 0 0 0 0 0 0 0 0 0 0 0 0 0 0 0 0 127 0" result="hardAlpha"/>
<feOffset/>
<feGaussianBlur stdDeviation="0.7875"/>
<feComposite in2="hardAlpha" operator="out"/>
<feColorMatrix type="matrix" values="0 0 0 0 0 0 0 0 0 0 0 0 0 0 0 0 0 0 0.25 0"/>
<feBlend mode="normal" in2="BackgroundImageFix" result="effect1_dropShadow_535_14201"/>
<feBlend mode="normal" in="SourceGraphic" in2="effect1_dropShadow_535_14201" result="shape"/>
</filter>
<filter id="filter8_i_535_14201" x="10.5" y="23" width="20" height="3.1" filterUnits="userSpaceOnUse" color-interpolation-filters="sRGB">
<feFlood flood-opacity="0" result="BackgroundImageFix"/>
<feBlend mode="normal" in="SourceGraphic" in2="BackgroundImageFix" result="shape"/>
<feColorMatrix in="SourceAlpha" type="matrix" values="0 0 0 0 0 0 0 0 0 0 0 0 0 0 0 0 0 0 127 0" result="hardAlpha"/>
<feOffset dx="1" dy="2"/>
<feGaussianBlur stdDeviation="0.55"/>
<feComposite in2="hardAlpha" operator="arithmetic" k2="-1" k3="1"/>
<feColorMatrix type="matrix" values="0 0 0 0 0.0545834 0 0 0 0 0.26072 0 0 0 0 0.368083 0 0 0 0.3 0"/>
<feBlend mode="normal" in2="shape" result="effect1_innerShadow_535_14201"/>
</filter>
</defs>
</svg>
