<svg width="12" height="12" viewBox="0 0 12 12" fill="none" xmlns="http://www.w3.org/2000/svg">
<path id="Shape" d="M11.6569 1.75759C12.0474 1.36707 12.0474 0.733902 11.6569 0.343378C11.2663 -0.0471467 10.6332 -0.0471467 10.2426 0.343378L6 4.58602L1.75736 0.343378C1.36684 -0.0471467 0.73367 -0.0471467 0.343146 0.343378C-0.0473788 0.733902 -0.0473785 1.36707 0.343146 1.75759L4.58579 6.00023L0.343146 10.2429C-0.0473788 10.6334 -0.0473784 11.2666 0.343146 11.6571C0.73367 12.0476 1.36683 12.0476 1.75736 11.6571L6 7.41445L10.2426 11.6571C10.6332 12.0476 11.2663 12.0476 11.6569 11.6571C12.0474 11.2666 12.0474 10.6334 11.6569 10.2429L7.41421 6.00023L11.6569 1.75759Z" fill="white"/>
</svg>
