<svg width="138" height="50" viewBox="0 0 138 50" fill="none" xmlns="http://www.w3.org/2000/svg">
<g id="Property 1=Big Logo, Color=Color" clip-path="url(#clip0_921_6545)">
<g id="Vector">
<path d="M60.3462 8.15453L62.2911 1.28592C62.4392 0.761999 62.0456 0.242188 61.5024 0.242188H38.6473C38.2797 0.242188 37.9574 0.48632 37.8587 0.838803L31.3645 23.7762C31.2164 24.3002 31.61 24.82 32.1531 24.82H45.723C46.2675 24.82 46.6611 25.3411 46.5116 25.8651L44.7753 31.9464C44.6752 32.2989 44.3529 32.5417 43.9867 32.5417H29.502C29.1344 32.5417 28.8121 32.7858 28.7133 33.1383L26.6217 40.5267C26.4736 41.0506 26.8673 41.5704 27.4104 41.5704H50.2655C50.6331 41.5704 50.9554 41.3263 51.0541 40.9738L57.6951 17.5166C57.8432 16.9927 57.4496 16.4728 56.9065 16.4728H43.0965C42.552 16.4728 42.1598 15.953 42.3065 15.4291L44.0237 9.34776C44.1238 8.9939 44.4461 8.74977 44.8137 8.74977H59.5576C59.9252 8.74977 60.2475 8.50565 60.3462 8.15316V8.15453Z" fill="#0E425E"/>
<path d="M68.6317 0.830574L57.3879 40.5432C57.2425 41.0589 57.6293 41.5704 58.1642 41.5704H81.0454C81.4061 41.5704 81.7243 41.3304 81.8217 40.9834L83.9201 33.5689C84.0655 33.0532 83.6787 32.5417 83.1438 32.5417H69.231C68.6934 32.5417 68.3053 32.026 68.4561 31.5089L77.2243 1.27495C77.3738 0.757882 76.987 0.242188 76.4494 0.242188H69.408C69.0472 0.242188 68.729 0.482205 68.6317 0.829201V0.830574Z" fill="#0E425E"/>
<path d="M2.23187 32.5417C1.88899 32.5417 1.58588 32.7625 1.47479 33.0862C0.498258 35.9623 0.137544 37.9715 0.0415373 39.5104C-0.0695564 41.2646 0.230808 42.3069 0.846623 43.7566C2.05494 46.5971 3.71038 47.1814 4.67182 47.6916C5.73475 48.2553 7.16937 49.0686 10.8451 49.0508C14.5084 49.0343 17.3296 47.9426 19.2182 44.4218C19.5405 43.8197 19.5886 43.7786 19.7682 43.2698C19.7737 43.2519 19.7806 43.2341 19.786 43.2163L31.5304 1.25575C31.6731 0.746912 31.2904 0.243561 30.7624 0.243561H23.8307C23.4741 0.243561 23.16 0.480832 23.064 0.823714L12.4319 38.3857C12.0205 39.6832 10.6558 39.9891 9.97688 39.8615C9.23214 39.7216 8.47781 38.7725 8.46409 38.2033C8.44077 37.283 8.76308 36.2503 9.50371 33.5511C9.6436 33.0436 9.26095 32.5417 8.73428 32.5417H2.23187Z" fill="#0E425E"/>
<path d="M97.4529 9.91281H110.609C111.045 9.91281 111.399 9.55896 111.399 9.12282V1.03354C111.399 0.597397 111.045 0.243546 110.609 0.243546H99.7708C99.4183 0.243546 99.1083 0.476703 99.0123 0.81547L96.6944 8.90474C96.5504 9.40946 96.929 9.91145 97.4529 9.91145V9.91281Z" fill="#87B7D1"/>
<path d="M93.5989 23.8366H126.005C126.459 23.8366 126.827 23.469 126.827 23.015V14.9875C126.827 14.5335 126.459 14.1659 126.005 14.1659H95.8551C95.4875 14.1659 95.1638 14.4101 95.0651 14.7653L92.8089 22.7928C92.6622 23.3168 93.0558 23.8366 93.5989 23.8366Z" fill="#2D7FA9"/>
<path d="M88.4049 41.5702H130.941C131.205 41.5702 131.446 41.4249 131.568 41.1917L137.907 29.1291C138.156 28.6573 137.813 28.0909 137.281 28.0909H91.7898C91.4716 28.0909 91.1932 28.3021 91.1068 28.6079L87.7233 40.6705C87.5971 41.1231 87.9358 41.5702 88.4063 41.5702H88.4049Z" fill="#0E425E"/>
</g>
</g>
<defs>
<clipPath id="clip0_921_6545">
<rect width="138" height="49.125" fill="white"/>
</clipPath>
</defs>
</svg>
