<svg width="138" height="50" viewBox="0 0 138 50" fill="none" xmlns="http://www.w3.org/2000/svg">
<g id="Logos" clip-path="url(#clip0_3070_2196)">
<g id="Vector">
<path d="M60.3465 8.15477L62.2913 1.28617C62.4394 0.762243 62.0458 0.242432 61.5027 0.242432H38.6475C38.28 0.242432 37.9577 0.486564 37.8589 0.839047L31.3647 23.7765C31.2166 24.3004 31.6102 24.8202 32.1534 24.8202H45.7233C46.2678 24.8202 46.6614 25.3414 46.5119 25.8653L44.7755 31.9467C44.6754 32.2992 44.3531 32.5419 43.9869 32.5419H29.5022C29.1346 32.5419 28.8123 32.786 28.7136 33.1385L26.622 40.5269C26.4739 41.0509 26.8675 41.5707 27.4106 41.5707H50.2658C50.6333 41.5707 50.9556 41.3265 51.0544 40.9741L57.6953 17.5168C57.8434 16.9929 57.4498 16.4731 56.9067 16.4731H43.0968C42.5523 16.4731 42.16 15.9533 42.3068 15.4294L44.0239 9.348C44.1241 8.99415 44.4464 8.75002 44.8139 8.75002H59.5579C59.9254 8.75002 60.2477 8.50589 60.3465 8.15341V8.15477Z" fill="white"/>
<path d="M68.6319 0.830818L57.3881 40.5434C57.2427 41.0591 57.6295 41.5707 58.1644 41.5707H81.0456C81.4063 41.5707 81.7245 41.3307 81.8219 40.9837L83.9203 33.5692C84.0657 33.0535 83.6789 32.5419 83.1441 32.5419H69.2313C68.6936 32.5419 68.3055 32.0262 68.4564 31.5091L77.2245 1.27519C77.374 0.758126 76.9873 0.242432 76.4496 0.242432H69.4082C69.0475 0.242432 68.7293 0.482449 68.6319 0.829445V0.830818Z" fill="white"/>
<path d="M2.23211 32.5419C1.88923 32.5419 1.58612 32.7627 1.47503 33.0864C0.498502 35.9625 0.137788 37.9718 0.0417815 39.5106C-0.0693123 41.2648 0.231052 42.3072 0.846868 43.7569C2.05518 46.5973 3.71062 47.1816 4.67206 47.6918C5.73499 48.2555 7.16961 49.0688 10.8453 49.051C14.5087 49.0345 17.3299 47.9428 19.2185 44.4221C19.5408 43.82 19.5888 43.7788 19.7685 43.27C19.774 43.2522 19.7808 43.2343 19.7863 43.2165L31.5307 1.25599C31.6733 0.747156 31.2907 0.243805 30.7626 0.243805H23.8309C23.4743 0.243805 23.1603 0.481077 23.0642 0.823959L12.4322 38.386C12.0207 39.6835 10.656 39.9893 9.97713 39.8618C9.23239 39.7219 8.47805 38.7728 8.46433 38.2036C8.44102 37.2833 8.76332 36.2505 9.50395 33.5514C9.64385 33.0439 9.26119 32.5419 8.73453 32.5419H2.23211Z" fill="white"/>
<path d="M97.4531 9.91306H110.609C111.045 9.91306 111.399 9.55921 111.399 9.12306V1.03379C111.399 0.597641 111.045 0.24379 110.609 0.24379H99.771C99.4185 0.24379 99.1086 0.476947 99.0126 0.815714L96.6947 8.90499C96.5507 9.40971 96.9292 9.91169 97.4531 9.91169V9.91306Z" fill="white"/>
<path d="M93.5992 23.8368H126.006C126.46 23.8368 126.827 23.4692 126.827 23.0153V14.9877C126.827 14.5337 126.46 14.1662 126.006 14.1662H95.8553C95.4878 14.1662 95.1641 14.4103 95.0653 14.7655L92.8092 22.7931C92.6624 23.317 93.056 23.8368 93.5992 23.8368Z" fill="white"/>
<path d="M88.4052 41.5705H130.942C131.205 41.5705 131.446 41.4251 131.568 41.1919L137.908 29.1294C138.156 28.6576 137.813 28.0911 137.281 28.0911H91.7901C91.4719 28.0911 91.1935 28.3023 91.1071 28.6082L87.7235 40.6708C87.5973 41.1234 87.9361 41.5705 88.4065 41.5705H88.4052Z" fill="white"/>
</g>
</g>
<defs>
<clipPath id="clip0_3070_2196">
<rect width="138" height="49.125" fill="white"/>
</clipPath>
</defs>
</svg>
