<svg width="316" height="30" viewBox="0 0 316 30" fill="none" xmlns="http://www.w3.org/2000/svg">
    <path d="M243.116 3.20337C238.317 9.99144 233.519 16.7795 228.32 24.1474C230.719 24.1474 232.539 24.1474 234.368 24.1474C236.338 24.1474 238.327 24.2874 240.277 24.1074C242.566 23.9075 243.516 24.7472 243.186 27.0266C243.086 27.7064 243.066 28.3962 242.996 29.186H220.202C220.782 27.4765 220.972 25.9069 221.772 24.7472C225.591 19.1688 229.57 13.7104 233.479 8.20195C233.878 7.64211 234.188 7.02228 234.798 5.98258C230.939 5.98258 227.45 5.98258 223.951 5.98258C221.322 5.98258 220.002 3.96316 221.242 1.58384C221.502 1.08398 222.672 0.85404 223.431 0.844043C229.58 0.744071 235.728 0.73408 241.876 0.694092C243.516 0.924026 243.146 2.15367 243.116 3.20337Z" fill="#04283A"/>
    <path d="M281.254 7.92212C278.635 6.45254 276.026 5.21289 272.807 5.5228C267.788 6.00267 264.299 9.86157 264.319 15.36C264.339 20.6085 267.738 24.3774 272.717 24.6973C275.806 24.8973 278.685 24.3774 281.284 21.9381C282.474 23.2278 283.564 24.4174 285.123 26.1069C282.444 27.4166 280.025 28.5862 277.615 29.7659C273.586 29.9558 269.538 30.2158 265.879 28.0364C258.861 23.8576 256.721 13.6905 261.34 6.63249C261.73 6.04266 262.13 5.45283 262.53 4.873C267.698 -0.535462 276.106 -0.945347 281.194 2.08379C282.304 2.7436 283.314 3.59336 284.493 4.44312C283.264 5.77274 282.264 6.85243 281.264 7.94212L281.254 7.92212Z" fill="#04283A"/>
    <path d="M150.172 17.6893V12.8806H162.289C162.289 16.6895 162.569 20.4085 162.139 24.0475C161.989 25.3571 160.339 26.7567 159.04 27.6164C153.761 31.1054 145.054 30.5656 140.625 26.6767C135.906 22.5279 134.627 15.1 137.046 8.83179C141.045 -1.54525 155.391 -2.46499 161.399 4.43304C160.809 5.07286 160.15 5.70268 159.6 6.42247C158.68 7.62213 157.82 7.49217 156.621 6.70239C152.172 3.76323 146.303 4.69297 143.244 8.69183C140.085 12.8207 140.705 19.5187 144.564 22.8678C147.243 25.1971 153.341 25.467 156.151 23.4176C157.97 22.098 157.15 20.2385 157 18.629C156.96 18.2391 155.391 17.8192 154.491 17.7193C153.102 17.5693 151.692 17.6793 150.172 17.6793V17.6893Z" fill="#04283A"/>
    <path d="M108.344 29.2958C108.304 28.1961 108.254 27.0964 108.214 25.9967C108.214 17.7291 108.214 9.47146 108.214 1.10384C110.914 0.544001 112.863 0.603984 114.603 2.9933C118.261 8.00187 122.25 12.7705 126.689 17.5492C126.689 16.1296 126.689 14.71 126.689 13.2804C126.689 9.65141 126.729 6.02244 126.689 2.39348C126.669 0.234091 128.249 0.823925 129.368 0.833922C130.468 0.833922 132.078 0.194103 132.068 2.36348C132.038 11.041 132.038 19.7085 132.018 28.3861C132.018 28.606 131.878 28.8159 131.798 29.0359C129.778 29.7757 128.419 29.1159 127.159 27.4363C123.58 22.6377 119.861 17.949 116.192 13.2204C115.622 12.4806 115.002 11.7808 113.903 10.4612V29.2858H108.344V29.2958Z" fill="#04283A"/>
    <path d="M186.242 14.1602C186.282 10.6912 186.502 7.21215 186.312 3.75314C186.172 1.28384 187.012 0.434088 189.361 0.803983C189.981 0.903954 190.611 0.883957 191.711 0.933943C191.191 8.48179 192.68 16.0096 190.641 23.4575C185.782 30.9854 175.425 32.185 169.667 25.8568C167.368 23.3276 166.698 20.1585 166.628 16.8794C166.528 12.2307 166.718 7.57205 166.558 2.92337C166.478 0.684012 167.718 0.753997 169.227 0.803983C170.687 0.853968 172.226 0.414087 172.166 2.91337C172.046 8.19187 172.086 13.4804 172.266 18.7589C172.376 21.958 174.466 24.0574 177.685 24.7372C181.034 25.457 184.103 24.5472 185.153 21.758C186.032 19.4187 185.922 16.7094 186.242 14.1602Z" fill="#04283A"/>
    <path d="M97.3574 6.58224C97.3574 6.11237 97.3574 5.6325 97.3574 5.16264C97.4274 3.76304 97.4874 2.36344 97.5574 1.00383C97.9273 0.873865 98.1372 0.753895 98.3671 0.7339C102.966 0.294026 102.956 0.304028 102.976 4.86273C103.006 11.6308 103.056 18.3989 103.096 25.1669C103.016 26.4166 102.936 27.6562 102.856 29.1158H97.3674C97.3674 22.3777 97.3674 15.6596 97.3674 8.95156C97.3674 8.16178 97.3674 7.37201 97.3674 6.58224H97.3574Z" fill="#04283A"/>
    <path d="M77.3332 12.9805C79.8925 9.45152 82.2618 6.26243 84.5611 3.02335C85.8908 1.14389 89.8396 -0.0857605 91.8091 0.933949C92.139 1.1039 92.4789 1.65374 92.4789 2.02363C92.5189 11.0011 92.5089 19.9785 92.5089 29.1359H87.0704V9.74144C86.8705 9.68145 86.6705 9.62147 86.4706 9.57149C84.3112 12.4107 82.1118 15.2299 80.0024 18.0991C77.0833 22.0779 77.2732 22.0579 74.544 18.0991C72.6345 15.3298 70.5451 12.6806 68.5357 9.97137C68.3158 10.0114 68.1058 10.0513 67.8859 10.0913V29.1359H62.3875V0.734001C64.1769 0.734001 65.9764 0.614043 67.7459 0.803989C68.3657 0.873969 69.0056 1.62375 69.4454 2.20358C72.0247 5.6626 74.554 9.1616 77.3432 12.9905L77.3332 12.9805Z" fill="#04283A"/>
    <path d="M21.8991 25.9971C18.4401 28.7463 14.4113 29.4361 10.1325 29.3362C7.15333 29.2662 4.16418 29.3262 0.965088 29.3262V0.694336C4.66403 0.694336 8.39297 0.694336 12.1319 0.694336C16.5007 1.02424 20.4595 2.14392 23.3087 5.85286C27.7574 11.6512 27.2576 19.409 21.8991 26.0071V25.9971ZM6.08363 23.8977C8.9928 23.8977 11.5521 24.1976 14.0114 23.8377C18.7 23.1479 21.0094 19.6889 20.7994 14.3104C20.6095 9.66177 17.8103 6.49268 13.3216 6.0728C11.4421 5.89285 9.53264 5.90285 7.65318 6.04281C7.10334 6.0828 6.1636 6.83258 6.15361 7.27246C6.05364 12.7709 6.08363 18.2693 6.08363 23.9077V23.8977Z" fill="#04283A"/>
    <path d="M43.4129 29.8657C34.5854 29.6558 28.777 23.6875 28.947 14.9899C29.1069 6.28242 35.5551 -0.105756 43.9327 0.124178C52.3403 0.354113 58.6285 7.01221 58.3386 15.3498C58.0287 24.2173 52.0104 30.0656 43.4129 29.8657ZM52.9002 15.0899C52.9002 9.1616 49.1312 5.13275 43.5728 5.14274C38.1444 5.14274 34.3554 9.1716 34.3454 14.94C34.3454 21.0882 38.0044 25.0071 43.7728 25.0071C49.1012 25.0071 52.8902 20.8982 52.9002 15.0899Z" fill="#04283A"/>
    <path d="M97.3579 6.58228C97.3579 7.37228 97.3579 8.16227 97.3579 8.95227C96.9479 8.71227 96.5379 8.47227 96.1279 8.23227C96.5379 7.68227 96.9479 7.13228 97.3579 6.58228Z" fill="#04283A"/>
    <path d="M218.073 1.05393V6.05251C213.884 6.05251 209.815 6.02251 205.736 6.0725C204.607 6.09249 202.597 6.15248 202.497 6.56236C202.097 8.19189 202.197 9.98139 202.367 11.6809C202.397 11.9808 203.657 12.3407 204.347 12.3507C208.676 12.4107 212.994 12.3807 217.513 12.3807V17.5392C213.404 17.5392 209.325 17.4892 205.256 17.5692C204.257 17.5892 202.487 17.8991 202.407 18.319C202.097 19.9785 202.227 21.748 202.447 23.4475C202.487 23.7175 203.807 23.9774 204.537 23.9874C208.945 24.0374 213.354 24.0074 217.973 24.0074V29.1359H197.049V1.03394H218.063L218.073 1.05393Z" fill="#04283A"/>
    <path d="M312.026 25.937C306.897 30.5857 300.699 30.7157 294.701 28.9562C292.251 28.2364 290.172 25.2372 288.612 22.8279C286.503 19.5689 286.213 15.72 286.923 11.8711C289.552 -0.155513 301.958 -2.23493 309.676 2.53372C315.025 5.84277 317.564 14.0204 314.985 20.6086C314.255 22.488 313.025 24.1676 312.026 25.937ZM301.439 5.16296C295.9 5.12297 292.031 9.12184 291.931 14.9902C291.831 20.8985 295.74 24.9573 301.529 24.9573C306.857 24.9573 310.526 20.9485 310.646 15.0102C310.766 9.39176 306.837 5.19296 301.429 5.15297L301.439 5.16296Z" fill="#04283A"/>
</svg>
