<svg width="232" height="50" viewBox="0 0 232 50" fill="none" xmlns="http://www.w3.org/2000/svg">
<g id="Group 124">
<path id="Vector" d="M91.9297 24.5574C93.2029 22.7519 94.5265 21.155 95.5191 19.3783C96.4183 17.7742 97.598 17.3426 99.3603 17.7526V32.2398H96.6413V22.644C94.9437 24.9674 93.4763 26.9599 91.9441 29.0532C90.4263 26.9815 88.9445 24.9674 87.2757 22.6872V32.2254H84.4775V17.7886C86.1895 17.3354 87.4268 17.6231 88.3619 19.3567C89.333 21.1622 90.6781 22.7663 91.9297 24.5646V24.5574Z" fill="#04283A"/>
<path id="Vector_2" d="M194.8 32.2761H192.095C192.066 31.9236 192.037 31.5999 192.001 31.2258C189.433 33.1177 186.7 32.9522 184.851 30.8662C182.974 28.7442 183.017 24.9677 184.945 22.9752C186.794 21.0618 189.599 20.9395 191.987 22.781V17.0696H194.792V32.2761H194.8ZM192.188 27.0466C192.21 25.2842 190.915 23.9175 189.218 23.9103C187.477 23.896 186.204 25.162 186.175 26.9459C186.146 28.6794 187.549 30.1181 189.282 30.1253C190.8 30.1325 192.174 28.6866 192.188 27.0538V27.0466Z" fill="#04283A"/>
<path id="Vector_3" d="M153.698 27.7368V32.211H150.964V17.7885C153.611 17.7885 156.259 17.5943 158.87 17.8461C161.222 18.0763 162.898 20.6011 162.74 23.0396C162.567 25.6363 160.646 27.6217 158.129 27.7224C156.705 27.7799 155.273 27.7296 153.705 27.7296L153.698 27.7368ZM153.719 25.2695C155.065 25.2695 156.273 25.3127 157.481 25.2551C158.898 25.1904 159.877 24.2193 159.949 22.9317C160.021 21.5866 159.301 20.4716 157.963 20.3206C156.568 20.1623 155.136 20.2846 153.727 20.2846V25.2695H153.719Z" fill="#04283A"/>
<path id="Vector_4" d="M69.3714 0.00708008H73.8887V49.9928H62.9119C62.9119 49.5972 62.9047 49.2015 62.8975 48.8059H72.6371V1.17958H69.3714C69.3714 0.791145 69.3714 0.395514 69.3714 0.00708008Z" fill="#04283A"/>
<path id="Vector_5" d="M5.04245 49.9929H0V0H5.04964C5.04964 0.388434 5.04964 0.784059 5.04964 1.17249C3.80521 1.17249 2.56079 1.17249 1.31636 1.17249V48.7988H5.04964C5.04964 49.1945 5.04964 49.5901 5.04964 49.9857L5.04245 49.9929Z" fill="#04283A"/>
<path id="Vector_6" d="M231.564 27.8592H223.702C223.609 27.9959 223.515 28.1398 223.422 28.2765C223.997 28.8591 224.479 29.7151 225.177 29.9597C226.687 30.4992 228.191 30.2762 229.248 28.8807C230.025 29.1037 230.744 29.3123 231.478 29.5209C230.349 32.204 227.22 33.2614 224.04 32.1176C221.537 31.2185 220.127 27.9671 221.026 25.1618C221.925 22.3564 224.932 20.8243 227.925 21.6515C230.665 22.4068 232.19 24.9316 231.564 27.8521V27.8592ZM229.018 26.0537C228.565 24.5432 227.522 23.6944 226.256 23.7303C224.889 23.7663 223.932 24.5863 223.58 26.0537H229.018Z" fill="#04283A"/>
<path id="Vector_7" d="M144.231 29.6143C143.145 32.2183 139.369 33.4267 136.254 31.9018C134.032 30.8084 132.873 27.78 133.701 25.1905C134.564 22.4642 137.376 20.9321 140.347 21.5651C143.095 22.1477 144.627 24.4568 144.361 27.7944H136.355C136.535 29.974 139.29 31.1824 140.908 29.715C142.217 28.5353 143.102 29.3122 144.224 29.6215L144.231 29.6143ZM141.628 26.0537C141.34 24.5647 140.527 23.8238 139.117 23.759C137.657 23.6943 136.671 24.4711 136.29 26.0537H141.628Z" fill="#04283A"/>
<path id="Vector_8" d="M197.224 21.8169H199.856C199.856 23.608 199.842 25.3488 199.856 27.0823C199.871 28.967 200.569 29.9237 201.928 29.9884C203.403 30.0603 204.496 29.0317 204.604 27.2478C204.712 25.4639 204.626 23.6727 204.626 21.8241H207.337V32.3478C206.395 31.9018 205.014 33.2038 204.446 31.2832C203.194 32.3046 201.806 32.8225 200.137 32.4341C198.497 32.0529 197.404 31.0026 197.281 29.4633C197.073 26.9385 197.224 24.3849 197.224 21.8169Z" fill="#04283A"/>
<path id="Vector_9" d="M118.998 21.4719C122.242 21.3855 124.709 23.6586 124.774 26.8092C124.839 30.003 122.486 32.4847 119.336 32.5638C116.07 32.6429 113.531 30.2764 113.466 27.097C113.401 23.9391 115.739 21.5654 118.998 21.4719ZM122.091 27.1329C122.163 25.3562 120.94 24.0183 119.185 23.9463C117.516 23.8744 116.221 25.1188 116.149 26.8524C116.077 28.5572 117.315 29.9886 118.911 30.0462C120.659 30.1109 122.026 28.8593 122.091 27.1257V27.1329Z" fill="#04283A"/>
<path id="Vector_10" d="M176.795 21.4285C180.054 21.4285 182.377 23.7663 182.363 27.0176C182.348 30.1538 179.989 32.542 176.881 32.578C173.63 32.6139 171.163 30.2042 171.134 26.9672C171.112 23.8166 173.558 21.4285 176.802 21.4357L176.795 21.4285ZM176.651 23.9533C175.011 23.9821 173.745 25.3344 173.781 27.0104C173.824 28.744 175.09 30.1035 176.651 30.0891C178.464 30.0747 179.759 28.7512 179.723 26.9529C179.687 25.1689 178.413 23.9245 176.644 23.9533H176.651Z" fill="#04283A"/>
<path id="Vector_11" d="M106.848 21.4429C110.15 21.4717 112.451 23.831 112.437 27.1759C112.423 30.1611 109.862 32.6068 106.776 32.578C103.539 32.5492 101.072 30.0244 101.144 26.8018C101.216 23.7016 103.647 21.4141 106.848 21.4357V21.4429ZM106.754 23.9533C105.193 23.9389 103.812 25.2697 103.791 26.8018C103.769 28.6361 104.992 30.0532 106.618 30.082C108.366 30.1107 109.74 28.8375 109.775 27.1543C109.811 25.2913 108.56 23.9677 106.754 23.9533Z" fill="#04283A"/>
<path id="Vector_12" d="M219.667 24.9101C218.911 25.1403 218.149 25.3704 217.408 25.6006C216.243 24.0685 215.099 23.5865 213.732 24.0109C212.589 24.3706 211.797 25.5575 211.79 26.9386C211.783 28.2981 212.639 29.6144 213.775 29.9957C214.977 30.3985 216.365 29.8302 217.365 28.4995C217.725 28.593 218.12 28.6793 218.501 28.7872C218.883 28.8951 219.264 29.0174 219.638 29.1325C219.307 31.4703 216.509 32.7075 214.322 32.5709C211.373 32.391 209.136 30.0748 209.064 27.1544C208.992 24.2771 211.006 21.8458 213.747 21.5077C216.674 21.1408 219.134 22.5435 219.667 24.9101Z" fill="#04283A"/>
<path id="Vector_13" d="M170.343 23.9749C167.826 24.2411 167.013 24.5144 166.912 27.7873C166.869 29.2548 166.905 30.7222 166.905 32.2543H164.179V21.8529H166.775C166.833 22.1407 166.912 22.5003 166.948 22.6658C168.013 22.2054 169.077 21.745 170.351 21.1912V23.9749H170.343Z" fill="#04283A"/>
<path id="Vector_14" d="M129.212 32.2613H126.507V21.9535C128.557 21.4571 129.047 21.5938 129.291 22.608C130.341 22.1836 131.427 21.7448 132.679 21.2341V24.0107C130.039 24.1905 129.27 24.9962 129.219 27.6721C129.19 29.1826 129.219 30.7004 129.219 32.2613H129.212Z" fill="#04283A"/>
<path id="Vector_15" d="M62.8976 48.8059L62.912 49.9928C57.5027 49.9928 52.1006 49.9856 46.6913 49.9784C46.6913 49.59 46.6913 49.2015 46.6841 48.8131C52.0934 48.8131 57.4955 48.8131 62.9048 48.8131L62.8976 48.8059Z" fill="#04283A"/>
<path id="Vector_16" d="M40.4617 50C37.7499 50 35.038 50 32.3262 50C32.3262 49.6044 32.3262 49.2015 32.3262 48.8059C35.0308 48.8059 37.7427 48.8059 40.4473 48.8059C40.4473 49.2015 40.4473 49.5972 40.4473 50H40.4617Z" fill="#04283A"/>
<path id="Vector_17" d="M5.0498 1.17958C5.0498 0.791145 5.0498 0.395514 5.0498 0.00708008C7.57463 0.00708008 10.0923 0.00708008 12.6171 0.00708008C12.6171 0.395514 12.6171 0.783952 12.6171 1.17958C10.0923 1.17958 7.57463 1.17958 5.0498 1.17958Z" fill="#04283A"/>
<path id="Vector_18" d="M5.04248 49.9928C5.04248 49.5972 5.04248 49.2015 5.04248 48.8059C7.5673 48.8059 10.0849 48.8059 12.6097 48.8059C12.6097 49.2015 12.6097 49.59 12.6097 49.9856C10.0849 49.9856 7.5673 49.9856 5.04248 49.9856V49.9928Z" fill="#04283A"/>
<path id="Vector_19" d="M32.3335 48.8059C32.3335 49.2015 32.3335 49.6044 32.3335 50C29.9022 50 27.4709 50 25.0396 49.9928C25.0396 49.5972 25.0396 49.2087 25.0396 48.8131C27.4709 48.8131 29.9022 48.8131 32.3335 48.8131V48.8059Z" fill="#04283A"/>
<path id="Vector_20" d="M26.665 0.00708008C29.01 0.00708008 31.355 0.00708008 33.6928 0.00708008C33.6928 0.402707 33.6928 0.791141 33.6928 1.18677C31.3478 1.18677 29.01 1.18677 26.665 1.18677C26.665 0.798334 26.665 0.402709 26.665 0.0142748V0.00708008Z" fill="#04283A"/>
<path id="Vector_21" d="M39.9155 0.00708008C42.167 0.00708008 44.4257 0.00708008 46.6772 0.00708008C46.6772 0.395514 46.6772 0.783952 46.6772 1.17958C44.4257 1.17958 42.1742 1.17958 39.9227 1.17958C39.9227 0.791145 39.9227 0.395514 39.9227 0.00708008H39.9155Z" fill="#04283A"/>
<path id="Vector_22" d="M25.0396 48.8132C25.0396 49.2089 25.0396 49.5973 25.0396 49.9929C22.7881 49.9929 20.5366 49.9929 18.2852 49.9929C18.2852 49.5973 18.2852 49.2089 18.2852 48.8132C20.5366 48.8132 22.7881 48.8132 25.0396 48.8132Z" fill="#04283A"/>
<path id="Vector_23" d="M52.6187 0.00708008C54.7838 0.00708008 56.9418 0.00708008 59.1069 0.00708008C59.1069 0.395514 59.1069 0.791145 59.1069 1.17958C56.9418 1.17958 54.7838 1.17958 52.6187 1.17958C52.6187 0.791145 52.6187 0.395514 52.6187 0.00708008Z" fill="#04283A"/>
<path id="Vector_24" d="M59.1069 1.17958C59.1069 0.791145 59.1069 0.395514 59.1069 0.00708008C61.1786 0.00708008 63.2502 0.00708008 65.3219 0.00708008C65.3219 0.395514 65.3219 0.791145 65.3219 1.17958C63.2502 1.17958 61.1786 1.17958 59.1069 1.17958Z" fill="#04283A"/>
<path id="Vector_25" d="M39.915 0.00718927C39.915 0.395623 39.915 0.791254 39.915 1.17969C37.8434 1.17969 35.7645 1.17969 33.6929 1.17969C33.6929 0.784061 33.6929 0.395627 33.6929 0C35.7645 0 37.8362 0 39.9078 0L39.915 0.00718927Z" fill="#04283A"/>
<path id="Vector_26" d="M40.4619 50C40.4619 49.6044 40.4619 49.2087 40.4619 48.8059C42.5336 48.8059 44.6124 48.8059 46.684 48.8131C46.684 49.2015 46.6841 49.59 46.6912 49.9784C44.6196 49.9784 42.5408 49.9856 40.4619 49.9928V50Z" fill="#04283A"/>
<path id="Vector_27" d="M52.6184 0.00708008C52.6184 0.395514 52.6184 0.791145 52.6184 1.17958C50.6402 1.17958 48.6549 1.17958 46.6768 1.17958C46.6768 0.791145 46.6768 0.402709 46.6768 0.0142748C48.6549 0.0142748 50.6402 0.0142748 52.6184 0.0142748V0.00708008Z" fill="#04283A"/>
<path id="Vector_28" d="M18.2853 48.8132C18.2853 49.2089 18.2853 49.5973 18.2853 49.9929C16.3935 49.9929 14.5017 49.9929 12.6099 49.9929C12.6099 49.5973 12.6099 49.2089 12.6099 48.8132C14.5017 48.8132 16.3935 48.8132 18.2853 48.8132Z" fill="#04283A"/>
<path id="Vector_29" d="M26.6653 0.00708008C26.6653 0.395514 26.6653 0.791145 26.6653 1.17958C24.867 1.17958 23.0615 1.17958 21.2632 1.17958C21.2632 0.791145 21.2632 0.395514 21.2632 0.00708008C23.0615 0.00708008 24.867 0.00708008 26.6653 0.00708008Z" fill="#04283A"/>
<path id="Vector_30" d="M21.2631 0.00708008C21.2631 0.395514 21.2631 0.791145 21.2631 1.17958C19.8244 1.17958 18.3786 1.17958 16.9399 1.17958C16.9399 0.791145 16.9399 0.395514 16.9399 0.00708008C18.3786 0.00708008 19.8244 0.00708008 21.2631 0.00708008Z" fill="#04283A"/>
<path id="Vector_31" d="M16.9403 0.00708008C16.9403 0.395514 16.9403 0.791145 16.9403 1.17958C15.5017 1.17958 14.0558 1.17958 12.6172 1.17958C12.6172 0.791145 12.6172 0.402707 12.6172 0.00708008C14.0558 0.00708008 15.5017 0.00708008 16.9403 0.00708008Z" fill="#04283A"/>
<path id="Vector_32" d="M65.3145 1.17958C65.3145 0.791145 65.3145 0.395514 65.3145 0.00708008C66.6668 0.00708008 68.0191 0.00708008 69.3714 0.00708008C69.3714 0.395514 69.3714 0.791145 69.3714 1.17958C68.0191 1.17958 66.6668 1.17958 65.3216 1.17958H65.3145Z" fill="#04283A"/>
<path id="Vector_33" d="M51.5249 8.83326C51.8342 8.80449 52.1435 8.74694 52.4528 8.74694C54.0425 8.73256 54.1864 8.88362 54.1864 10.5309C54.1864 18.3427 54.1864 26.1474 54.1864 33.9592C54.1864 35.5273 54.1864 37.1026 54.1864 38.6708C54.1864 40.0519 53.4791 40.7256 52.0644 40.6921C51.8846 40.6921 51.7047 40.6561 51.5321 40.6417C51.5321 30.0389 51.5321 19.4361 51.5249 8.83326Z" fill="#04283A"/>
<path id="Vector_34" d="M48.2881 8.83301C48.9211 8.83301 49.5469 8.83301 50.1799 8.83301C50.1799 19.4358 50.1799 30.0386 50.1799 40.6414C49.4606 40.6414 48.7413 40.6414 48.022 40.6414C48.0723 40.1667 48.1658 39.6847 48.1658 39.21C48.1658 29.607 48.1514 20.0041 48.1443 10.4011C48.1443 9.87603 48.2378 9.35811 48.2881 8.83301Z" fill="#04283A"/>
<path id="Vector_35" d="M48.2882 8.83301C48.2379 9.35811 48.1443 9.87603 48.1443 10.4011C48.1443 20.0041 48.1587 29.607 48.1659 39.21C48.1659 39.6847 48.0724 40.1667 48.022 40.6414C47.0438 40.8716 46.7129 40.3897 46.7201 39.4905C46.7417 34.8365 46.7489 30.1825 46.756 25.5285C46.6338 24.3848 46.4252 23.2338 46.4108 22.0901C46.3676 18.4503 46.4108 14.8178 46.3676 11.178C46.3676 10.6673 46.0151 10.1638 45.8281 9.66023C46.2525 8.21439 47.4034 8.91213 48.2882 8.83301Z" fill="#04283A"/>
<path id="Vector_36" d="M21.5366 8.83301C22.0761 8.83301 22.6156 8.83301 23.1551 8.83301C23.1551 19.4358 23.1551 30.0386 23.1551 40.6414C22.6156 40.6414 22.0761 40.6414 21.5366 40.6414C21.5366 30.0386 21.5366 19.4358 21.5366 8.83301Z" fill="#04283A"/>
<path id="Vector_37" d="M23.1548 40.6414C23.1548 30.0386 23.1548 19.4358 23.1548 8.83301C23.6943 8.83301 24.2338 8.83301 24.7733 8.83301C24.7733 19.4358 24.7733 30.0386 24.7733 40.6343H23.1548V40.6414Z" fill="#04283A"/>
<path id="Vector_38" d="M24.7808 40.6416C24.7808 30.0388 24.7808 19.436 24.7808 8.84033C25.3203 8.84033 25.8597 8.84033 26.3992 8.84033C26.3992 19.4431 26.3992 30.046 26.3992 40.6416C25.8597 40.6416 25.3203 40.6416 24.7808 40.6416Z" fill="#04283A"/>
<path id="Vector_39" d="M26.3989 40.6416C26.3989 30.0388 26.3989 19.436 26.3989 8.84037C27.5211 8.67493 28.5281 8.7037 28.672 10.1855C28.4562 10.6387 28.0534 11.0919 28.0462 11.5522C27.9958 15.5948 28.0318 19.6302 28.003 23.6728C28.003 24.2411 27.8232 24.8021 27.7225 25.3704C27.6505 25.7876 27.5139 26.1976 27.5139 26.6148C27.4995 30.866 27.4995 35.1172 27.5139 39.3684C27.5139 40.1309 27.5426 40.8934 26.3989 40.6488V40.6416Z" fill="#04283A"/>
<path id="Vector_40" d="M50.1797 40.6414C50.1797 30.0386 50.1797 19.4358 50.1797 8.83301C50.6257 8.83301 51.0788 8.83301 51.5248 8.83301C51.5248 19.4358 51.5248 30.0386 51.532 40.6414C51.0788 40.6414 50.6329 40.6414 50.1797 40.6414Z" fill="#04283A"/>
<path id="Vector_41" d="M21.5367 8.83322C21.5367 19.436 21.5367 30.0388 21.5367 40.6417C20.4362 40.9078 20.134 40.4115 20.1412 39.3613C20.17 29.6216 20.1628 19.882 20.1412 10.1424C20.1412 9.12095 20.4074 8.56707 21.5367 8.83322Z" fill="#04283A"/>
<path id="Vector_42" d="M45.828 9.66052C46.015 10.164 46.3603 10.6676 46.3675 11.1783C46.4178 14.8181 46.3675 18.4506 46.4106 22.0904C46.425 23.2413 46.6408 24.385 46.7559 25.5288C46.087 26.8883 45.418 28.255 44.749 29.6145C44.5764 29.1685 44.2527 28.7298 44.2527 28.2838C44.2167 24.3347 44.2455 20.3784 44.2095 16.4293C44.2095 15.969 43.9146 15.5158 43.7563 15.0554C44.4469 13.2571 45.1374 11.4588 45.8208 9.65332L45.828 9.66052Z" fill="#04283A"/>
<path id="Vector_43" d="M27.73 25.356C27.8307 24.7878 28.0033 24.2267 28.0105 23.6584C28.0321 19.6158 28.0033 15.5804 28.0537 11.5379C28.0537 11.0775 28.4637 10.6315 28.6795 10.1711C29.3125 11.7896 29.9383 13.4081 30.5713 15.0266C30.3555 15.4797 29.9527 15.9257 29.9455 16.3861C29.8951 20.3208 29.9311 24.2483 29.9023 28.183C29.9023 28.6793 29.6793 29.1684 29.5571 29.6648C28.9528 28.2261 28.3414 26.7947 27.7372 25.356H27.73Z" fill="#04283A"/>
<path id="Vector_44" d="M29.5497 29.6648C29.672 29.1685 29.8949 28.6794 29.8949 28.183C29.9237 24.2483 29.895 20.3136 29.9381 16.3861C29.9381 15.933 30.3481 15.4798 30.5639 15.0266C31.0818 16.4437 31.5997 17.8607 32.1177 19.2778C32.0098 19.8389 31.8155 20.3999 31.8083 20.9538C31.7796 24.8813 31.8083 28.8088 31.7796 32.7363C31.7796 33.3406 31.5854 33.9448 31.4775 34.549C30.8301 32.9162 30.1827 31.2833 29.5425 29.6504L29.5497 29.6648Z" fill="#04283A"/>
<path id="Vector_45" d="M35.585 40.6417C33.7076 40.7496 33.6644 40.7136 33.0674 38.5629C33.1897 38.0665 33.4055 37.5702 33.4055 37.0811C33.4342 33.1464 33.4055 29.2117 33.4342 25.2842C33.4342 24.7231 33.6356 24.162 33.7435 23.6082C34.4773 25.5072 35.211 27.4134 35.9447 29.3124C35.8224 29.7152 35.5994 30.1108 35.5994 30.5065C35.5706 33.8873 35.585 37.2609 35.5778 40.6417H35.585Z" fill="#04283A"/>
<path id="Vector_46" d="M35.5848 40.6418C35.5848 37.261 35.5776 33.8802 35.6064 30.5066C35.6064 30.1038 35.8294 29.7081 35.9516 29.3125C36.3113 30.1397 36.6782 30.9597 37.1097 31.9524C37.4622 31.3482 37.7284 30.8878 38.0017 30.4274C38.1887 30.859 38.5268 31.2834 38.534 31.715C38.5844 34.693 38.5628 37.6782 38.5628 40.6562C37.5701 40.6562 36.5774 40.6562 35.5848 40.6562V40.6418Z" fill="#04283A"/>
<path id="Vector_47" d="M40.829 22.8169C41.3253 21.4862 41.8288 20.1555 42.3252 18.8247C42.5122 19.3282 42.8575 19.8318 42.8575 20.3353C42.9006 24.2196 42.8718 28.1112 42.8934 31.9955C42.8934 32.5566 43.0733 33.1248 43.1668 33.6859C42.692 34.9303 42.2173 36.1748 41.7353 37.4192C41.5771 36.966 41.2821 36.5128 41.2821 36.0597C41.2462 32.1178 41.2821 28.1831 41.239 24.2412C41.239 23.7593 40.9656 23.2845 40.8218 22.8098L40.829 22.8169Z" fill="#04283A"/>
<path id="Vector_48" d="M33.7509 23.6008C33.643 24.1619 33.4416 24.7158 33.4416 25.2769C33.4128 29.2116 33.4416 33.1463 33.4128 37.0738C33.4128 37.5701 33.1898 38.0664 33.0747 38.5556C32.5496 37.2248 32.0173 35.8869 31.4922 34.5561C31.6001 33.9519 31.7943 33.3477 31.7943 32.7434C31.8231 28.8159 31.7943 24.8884 31.8231 20.9609C31.8231 20.3999 32.0245 19.8388 32.1324 19.2849C32.6719 20.7236 33.2186 22.1622 33.7581 23.6008H33.7509Z" fill="#04283A"/>
<path id="Vector_49" d="M43.1663 33.686C43.0728 33.1249 42.9002 32.5567 42.893 31.9956C42.8714 28.1113 42.9002 24.2197 42.857 20.3354C42.857 19.8319 42.5117 19.3283 42.3247 18.8248C42.8067 17.5732 43.2814 16.3144 43.7634 15.0627C43.9216 15.5231 44.2093 15.9763 44.2165 16.4367C44.2525 20.3857 44.2165 24.342 44.2597 28.2911C44.2597 28.7371 44.5834 29.1759 44.756 29.6218C44.2237 30.9814 43.6986 32.3409 43.1663 33.7004V33.686Z" fill="#04283A"/>
<path id="Vector_50" d="M40.8291 22.8169C40.973 23.2916 41.2391 23.7736 41.2463 24.2484C41.2823 28.1902 41.2463 32.1249 41.2895 36.0668C41.2895 36.52 41.5844 36.9732 41.7426 37.4263C41.1312 38.4981 40.527 39.5627 39.9156 40.6345C39.9156 36.7789 39.9443 32.9162 39.8868 29.0606C39.8724 28.255 39.5415 27.4493 39.3545 26.6437C39.8436 25.3705 40.34 24.0901 40.8291 22.8169Z" fill="#04283A"/>
<path id="Vector_51" d="M39.3538 26.6436C39.5408 27.4492 39.8789 28.2548 39.8861 29.0605C39.9436 32.916 39.9149 36.7716 39.9149 40.6344C39.4617 40.6344 39.0157 40.6416 38.5625 40.6488C38.5625 37.6708 38.5841 34.6856 38.5338 31.7076C38.5338 31.276 38.1885 30.8516 38.0015 30.42C38.4546 29.1612 38.9006 27.9024 39.3538 26.6436Z" fill="#04283A"/>
</g>
</svg>
