<svg width="117" height="50" viewBox="0 0 117 50" fill="none" xmlns="http://www.w3.org/2000/svg">
<g id="Group 123">
<path id="Vector" d="M28.8399 37.4591H18.8247C18.8247 38.2329 18.7803 39.0067 18.8381 39.7761C18.8826 40.4076 18.6246 40.75 18.0376 40.7322C16.9747 40.6966 15.9118 40.5944 14.8534 40.4609C14.7022 40.4431 14.5065 40.0918 14.4798 39.8739C14.4175 39.3892 14.4398 38.8955 14.4353 38.4063C14.4264 37.7348 14.551 37.0544 13.9283 36.5163C13.746 36.3606 13.6971 35.9781 13.6926 35.7024C13.6749 34.475 13.6838 33.252 13.7015 32.0246C13.7149 30.8727 14.0929 30.4013 15.2314 29.9788C15.436 29.9032 15.7384 29.6675 15.7295 29.5208C15.7028 28.9738 15.5649 28.4356 15.4582 27.8931C15.4582 27.8842 15.3203 27.902 15.1469 27.9109V29.5519H13.8216C13.7771 28.7247 13.7282 27.8797 13.6793 27.0036C13.4836 26.9547 13.3013 26.8836 13.1145 26.8658C12.5586 26.808 12.3718 26.47 12.3763 25.9585C12.3807 25.0024 12.4074 24.0462 12.3674 23.0901C12.3362 22.3474 12.6431 21.9872 13.3724 21.9516C13.5148 21.9427 13.6571 21.8893 13.8794 21.836C13.8794 20.9554 13.8705 20.0793 13.8794 19.1988C13.9106 16.4059 13.9639 13.6131 13.9684 10.8202C13.9684 10.1576 14.2619 9.80179 14.8489 9.65948C15.2225 9.56609 15.6227 9.52162 16.0096 9.51717C21.1595 9.50827 26.305 9.50827 31.4548 9.51717C31.7706 9.51717 32.0953 9.52606 32.4066 9.57498C33.2827 9.7084 33.5717 10.0597 33.5851 10.9358C33.6251 14.4136 33.6696 17.8913 33.714 21.3735C33.714 21.5202 33.7363 21.6625 33.7541 21.836C33.8786 21.8627 33.9942 21.8982 34.1098 21.9116C35.2083 22.045 35.3328 22.1829 35.3328 23.3036C35.3328 23.9884 35.3328 24.6777 35.3328 25.3626C35.3328 26.2283 34.897 26.7502 34.0254 26.928C33.9809 27.7641 33.9364 28.6135 33.8919 29.4852H32.6022C32.5756 28.956 32.5533 28.4312 32.5266 27.9109C31.8862 27.9109 31.8729 27.9642 31.9796 29.7164C32.0019 29.7387 32.033 29.7832 32.073 29.7965C33.803 30.3613 34.0031 30.6415 34.0031 32.4871C34.0031 33.4432 34.012 34.3994 33.9987 35.3555C33.9987 35.6179 34.012 35.9648 33.8608 36.1293C32.9091 37.1567 33.2426 38.4375 33.167 39.6204C33.127 40.1986 32.9669 40.4876 32.4066 40.5232C31.4638 40.5855 30.5209 40.67 29.5781 40.6744C29.0356 40.6744 28.7776 40.3631 28.8221 39.7583C28.8799 39.0067 28.8354 38.2507 28.8354 37.4591H28.8399ZM30.2363 29.6008C30.3608 27.8753 30.5076 26.1987 30.5965 24.5176C30.6277 23.895 30.1162 23.4726 29.4447 23.4681C28.195 23.4592 26.9454 23.4681 25.7002 23.4681C25.1976 23.4681 24.6995 23.4681 24.2059 23.4681V29.2495C26.2071 29.3651 28.1728 29.4807 30.2363 29.6008ZM23.6544 29.245V23.4681C21.84 23.4681 20.0744 23.4548 18.3133 23.477C17.6729 23.4859 17.2504 24.024 17.2949 24.6644C17.326 25.1269 17.3616 25.5894 17.4016 26.0519C17.495 27.266 17.5929 28.4757 17.6863 29.632C19.7186 29.4985 21.6665 29.374 23.6589 29.2406L23.6544 29.245ZM31.9663 27.5862C32.749 27.6574 32.4866 27.1326 32.4777 26.7857C32.4421 25.3048 32.3354 23.8194 32.3799 22.3385C32.4066 21.4446 32.1219 20.8932 31.228 20.822C30.5699 20.7686 29.9072 20.7864 29.2446 20.7909C26.7541 20.8087 24.2637 20.8531 21.7733 20.8487C20.3768 20.8487 18.9848 20.7597 17.5929 20.7108C15.6761 20.6441 15.2759 21.031 15.3203 22.9211C15.3203 23.0189 15.3248 23.1168 15.3203 23.2146C15.2625 24.4332 15.1869 25.6517 15.1602 26.8702C15.1558 27.1104 15.3159 27.3594 15.4004 27.604C15.5116 27.3817 15.7117 27.1637 15.7206 26.9369C15.7651 25.7362 15.7651 24.5354 15.7695 23.3347C15.7739 21.7959 15.9785 21.5869 17.495 21.5869C21.244 21.5869 24.9975 21.5869 28.7465 21.5869C29.4091 21.5869 30.0718 21.5602 30.73 21.6181C31.8106 21.7115 31.9885 21.9738 31.9752 23.0723C31.9574 24.5621 31.9707 26.0519 31.9707 27.5862H31.9663ZM23.9257 35.0887C22.2135 35.0887 20.5013 35.0709 18.7892 35.1109C18.5268 35.1154 18.2688 35.3911 18.0109 35.5423C18.2733 35.6935 18.5312 35.9781 18.7936 35.9781C22.218 36.0093 25.6423 36.0004 29.0667 35.9959C29.3958 35.9959 29.8272 36.0626 29.8183 35.5423C29.8094 35.0442 29.4091 35.0887 29.0622 35.0887C27.3501 35.0887 25.6379 35.0887 23.9257 35.0887ZM23.8545 34.3371C25.3755 34.3371 26.892 34.3371 28.413 34.3371C28.7687 34.3371 29.1868 34.3505 29.1334 33.8746C29.1156 33.7056 28.6976 33.4566 28.4574 33.4566C25.3933 33.4299 22.3292 33.4299 19.2695 33.4566C19.0382 33.4566 18.8114 33.7456 18.5846 33.8968C18.8203 34.0436 19.056 34.3104 19.2961 34.3149C20.8126 34.3549 22.3336 34.3327 23.8545 34.3327V34.3371ZM23.859 32.4693C25.0598 32.4693 26.2605 32.4782 27.4612 32.4648C27.7992 32.4648 28.2706 32.5938 28.2617 31.9979C28.2484 31.4553 27.8126 31.5754 27.4968 31.5754C25.0953 31.5665 22.6938 31.5709 20.2923 31.5754C19.9499 31.5754 19.563 31.5176 19.5719 32.0512C19.5808 32.5493 19.9543 32.4693 20.2612 32.4737C21.4619 32.4782 22.6627 32.4737 23.8634 32.4737L23.859 32.4693ZM31.8773 33.7012C32.6645 33.6923 33.3538 33.0252 33.3583 32.2692C33.3627 31.4286 32.7268 30.7793 31.8862 30.7749C31.0502 30.7704 30.4098 31.4242 30.4275 32.2647C30.4498 33.0563 31.1124 33.7145 31.8773 33.7056V33.7012ZM17.2638 32.1891C17.2504 31.3619 16.6456 30.766 15.8229 30.7749C15.0224 30.7793 14.3508 31.4286 14.3553 32.1936C14.3597 33.0163 15.0357 33.7101 15.8273 33.7056C16.6545 33.7056 17.2771 33.043 17.2638 32.1891Z" fill="#04283A"/>
<path id="Vector_2" d="M103.953 25.6917C103.148 25.7495 102.455 25.8029 101.716 25.8607V24.024C103.638 23.9395 105.559 23.8283 107.484 23.7883C108.432 23.7705 109.406 23.7838 110.331 23.9706C113.186 24.5443 114.76 26.4788 115.552 29.1605C116.094 30.9928 116.139 32.8739 116.063 34.764C115.965 37.2144 115.721 39.6426 114.916 41.9863C113.684 45.5752 111.354 47.9945 107.649 49.0218C105.288 49.6755 102.886 49.7867 100.405 49.6444C100.311 48.9729 100.222 48.328 100.12 47.5942C100.796 47.6698 101.414 47.741 102.161 47.8255C102.762 40.4654 103.357 33.1363 103.962 25.6961L103.953 25.6917ZM106.995 25.4471C106.666 32.9362 106.337 40.4387 106.004 48.0523C106.395 47.8967 106.715 47.7988 107.009 47.6476C108.654 46.7938 109.535 45.3128 110.22 43.6807C111.54 40.5276 111.829 37.1878 111.932 33.8257C111.99 31.8911 111.945 29.9521 111.389 28.0709C110.718 25.8118 109.406 25.0201 106.995 25.4426V25.4471Z" fill="#04283A"/>
<path id="Vector_3" d="M97.6204 35.0887C97.5448 39.2202 97.1223 42.9158 95.2322 46.2913C94.3473 47.87 93.2132 49.2175 91.4121 49.7512C88.4413 50.6317 85.7463 49.1197 84.6212 46.0511C83.8073 43.8275 83.6517 41.5016 83.6339 39.1802C83.6117 35.6535 84.2076 32.2069 85.5996 28.9426C86.4445 26.9592 87.5608 25.1403 89.562 24.0952C91.6478 23.0056 93.9114 23.5437 95.3123 25.4338C96.6731 27.2705 97.0867 29.4407 97.3803 31.6288C97.5493 32.8873 97.5626 34.1637 97.6204 35.0843V35.0887ZM93.569 33.1853C93.5112 33.1853 93.4578 33.1853 93.4 33.1808C93.4 31.7355 93.4934 30.2857 93.3689 28.8493C93.2844 27.8442 93.0175 26.8213 92.6306 25.8874C92.1948 24.8468 91.1186 24.7133 90.4915 25.6428C89.9089 26.5145 89.4197 27.5373 89.2063 28.5557C88.7749 30.6326 88.3924 32.7495 88.2812 34.8619C88.1122 38.1084 88.13 41.3682 88.2056 44.6191C88.2279 45.5575 88.6148 46.527 89.0061 47.4075C89.3708 48.2302 90.327 48.3414 90.9674 47.7055C91.3365 47.3364 91.7101 46.8605 91.8301 46.3713C92.3193 44.4101 92.8574 42.44 93.102 40.4387C93.4 38.0372 93.4222 35.6046 93.5645 33.1808L93.569 33.1853Z" fill="#04283A"/>
<path id="Vector_4" d="M81.1391 35.0084C81.0902 39.2289 80.6143 42.9156 78.7509 46.2955C77.8882 47.8565 76.7675 49.1817 75.0019 49.7288C72.0223 50.6582 69.2784 49.1417 68.1443 46.0464C67.3305 43.8228 67.1748 41.4969 67.1615 39.1755C67.1393 35.6488 67.7352 32.2022 69.1272 28.938C69.9766 26.9545 71.0884 25.1356 73.0896 24.0905C75.1754 23.0054 77.439 23.5435 78.8354 25.4336C80.1963 27.2703 80.6099 29.4405 80.8989 31.6286C81.0679 32.8871 81.0813 34.1635 81.1347 35.004L81.1391 35.0084ZM77.0966 33.1806C77.0388 33.1806 76.981 33.1806 76.9276 33.1762C76.9276 31.7308 77.021 30.281 76.8964 28.8446C76.812 27.8395 76.5451 26.8167 76.1538 25.8827C75.7179 24.8421 74.6417 24.7087 74.0147 25.6426C73.4321 26.5143 72.9429 27.5371 72.7294 28.5555C72.298 30.6324 71.9156 32.7493 71.8044 34.8617C71.6354 38.1082 71.6532 41.368 71.7288 44.6189C71.751 45.5573 72.1379 46.5267 72.5293 47.4073C72.894 48.2256 73.8546 48.3412 74.4905 47.7008C74.8596 47.3317 75.2287 46.8558 75.3533 46.3667C75.8425 44.4277 76.3761 42.4842 76.6207 40.5052C76.9187 38.0815 76.9454 35.6222 77.0921 33.1762L77.0966 33.1806Z" fill="#04283A"/>
<path id="Vector_5" d="M63.2123 39.5402C62.9233 38.8597 62.6342 38.1793 62.3229 37.45H58.8229C58.6272 40.5764 58.4316 43.7383 58.2359 46.967C58.8985 46.927 59.4767 46.8959 60.1437 46.8558C60.1037 47.4785 60.0681 48.0433 60.0326 48.5547H53.0904C53.0415 48.1322 53.0015 47.8076 52.957 47.3984C53.6997 47.3184 54.3935 47.2472 55.1273 47.1672C55.2829 40.3451 55.4386 33.5853 55.5987 26.7366H53.6419C53.504 26.2608 53.3929 25.865 53.255 25.3847C57.5332 25.1267 61.7492 24.8688 66.0096 24.6108C66.0096 26.0073 66.0141 27.3414 66.0096 28.68C66.0096 29.1692 65.9918 29.6629 65.9474 30.1476C65.934 30.3077 65.8006 30.4589 65.7206 30.6146C65.556 30.5123 65.3114 30.4456 65.2403 30.2988C64.7511 29.2849 64.2797 28.2665 63.8394 27.2303C63.6704 26.8345 63.4569 26.6832 63.0166 26.6966C61.847 26.7277 60.673 26.7055 59.4188 26.7055C59.2454 29.7118 59.0809 32.6559 58.903 35.7156C60.0237 35.5955 61.0866 35.4932 62.1405 35.3464C62.2784 35.3286 62.4118 35.0929 62.5008 34.9284C62.821 34.3236 63.1145 33.701 63.4258 33.0917C63.5281 32.896 63.6615 32.7181 63.786 32.5358C63.8616 32.5625 63.9372 32.5847 64.0173 32.6114C63.8572 34.9106 63.6926 37.2054 63.5325 39.5046C63.4302 39.5179 63.3235 39.5313 63.2212 39.5446L63.2123 39.5402Z" fill="#04283A"/>
<path id="Vector_6" d="M61.4779 2.52614C61.4245 1.8724 61.3756 1.27202 61.3222 0.582704C62.7764 0.471523 64.1773 0.36479 65.6405 0.258057C65.6405 0.805065 65.6894 1.31205 65.6093 1.80124C65.5871 1.94355 65.2002 2.12144 64.9778 2.12144C64.3374 2.12144 64.0973 2.36159 64.0395 3.01978C63.657 7.68047 63.239 12.3323 62.8298 16.9885C62.7364 18.0558 62.6386 19.1187 62.5363 20.2127C61.4556 20.2972 60.4372 20.3773 59.2142 20.4751C58.3959 15.2674 57.5821 10.0953 56.7549 4.8298C56.3991 9.28147 56.0522 13.6753 55.6965 18.1225C55.9722 18.1626 56.2034 18.1937 56.4658 18.2293C56.5281 18.5984 56.5904 18.9764 56.666 19.4345C55.4385 19.5412 54.2556 19.6435 53.0237 19.7502V18.6429C54.1221 18.7585 54.1088 17.9802 54.1978 17.1975C54.6514 13.1372 55.1361 9.0769 55.6075 5.01658C55.6209 4.91875 55.6075 4.82091 55.6075 4.63857C55.1895 4.58076 54.767 4.52294 54.2333 4.44734C54.2066 3.92257 54.1755 3.38445 54.1444 2.79742C55.821 2.70848 57.422 2.62398 58.9785 2.54393C59.6723 7.0712 60.3616 11.554 61.0465 16.0324C61.1087 16.0324 61.1754 16.0324 61.2377 16.0279C61.6646 11.5362 62.0916 7.04452 62.5274 2.45499C62.2028 2.47722 61.9048 2.49946 61.4734 2.53059L61.4779 2.52614Z" fill="#04283A"/>
<path id="Vector_7" d="M84.5101 3.55353C84.5501 2.89089 84.5768 2.43283 84.599 2.02368H90.4515C90.4515 2.70262 89.952 3.09991 88.9528 3.21554C88.6593 4.483 90.038 15.6678 90.7139 17.5445L90.9274 17.5845C91.7813 12.9016 92.6351 8.21866 93.4979 3.46013H92.3327C92.2616 3.0421 92.1949 2.67298 92.1193 2.21936C93.5246 2.28607 94.8587 2.35278 96.2596 2.41948C96.2774 2.713 96.2952 2.96649 96.3174 3.2778C96.1529 3.30003 96.0106 3.34451 95.8772 3.32672C95.2679 3.24222 95.0811 3.55797 94.9788 4.10498C94.0805 9.01471 93.1644 13.9244 92.2527 18.8342C92.1949 19.141 92.1282 19.4479 92.0837 19.648C90.7495 20.0127 89.4909 20.3551 88.1701 20.7154C87.97 19.2745 87.7699 17.7357 87.5475 16.2014C86.9916 12.3813 86.4268 8.56555 85.8665 4.74538C85.8576 4.69646 85.8309 4.65199 85.8309 4.60307C85.8398 3.78033 85.6975 3.12214 84.5056 3.55353H84.5101Z" fill="#04283A"/>
<path id="Vector_8" d="M113.586 2.30811C113.648 1.56542 113.702 0.9606 113.755 0.355777C114.529 0.235702 115.267 0.124522 116.072 0C115.805 1.46758 115.547 2.90404 115.285 4.34049C115.063 5.56792 114.809 6.79091 114.622 8.02724C114.538 8.59648 114.333 8.90778 113.715 8.90778C113.413 8.90778 113.106 9.03231 112.794 9.10346C112.901 8.09839 113.079 7.10666 113.097 6.11493C113.115 5.09652 113.021 4.06921 112.87 3.05969C112.821 2.7217 112.439 2.42818 112.207 2.11688C111.958 2.43708 111.558 2.73059 111.483 3.08637C111.047 5.14099 111.145 7.18226 111.967 9.13015C112.585 10.5933 113.293 12.0164 113.964 13.4573C115.178 16.0589 114.862 18.4115 113.052 20.137C113.017 20.1726 112.986 20.2082 112.946 20.2393C111.518 21.5246 110.331 21.4045 109.179 19.7635C109.108 20.1281 109.05 20.4172 108.992 20.7063C108.503 20.8174 108.014 20.9286 107.458 21.0576C107.747 19.1586 108.018 17.2997 108.329 15.4452C108.361 15.2673 108.605 15.0761 108.796 14.9871C109.054 14.8671 109.357 14.8404 109.579 14.787C109.637 15.9344 109.677 17.0996 109.77 18.2558C109.797 18.5849 109.908 18.9496 110.095 19.212C110.3 19.4966 110.66 19.8835 110.922 19.8613C111.211 19.8346 111.607 19.4477 111.714 19.1319C112.136 17.9001 112.216 16.6059 111.687 15.4007C111.127 14.1288 110.42 12.9281 109.766 11.6962C108.187 8.7299 107.92 5.71468 109.415 2.62831C109.793 1.8456 110.38 1.27191 111.202 0.99173C112.141 0.667083 112.772 1.00952 113.595 2.29477L113.586 2.30811Z" fill="#04283A"/>
<path id="Vector_9" d="M103.869 12.9371C103.673 12.7547 103.584 12.7103 103.575 12.6569C103.348 11.1359 102.188 11.2649 101.116 11.296C100.956 11.296 100.671 11.5362 100.662 11.6741C100.538 13.7509 100.449 15.8278 100.355 17.9046C100.355 17.9713 100.391 18.0425 100.427 18.1537C101.614 18.0113 102.797 17.8779 103.975 17.7045C104.122 17.6822 104.291 17.4465 104.353 17.2731C104.558 16.6994 104.709 16.1035 104.909 15.5253C104.972 15.3475 105.132 15.2007 105.243 15.0406C105.31 15.0673 105.372 15.094 105.439 15.1162C105.51 16.4682 105.585 17.8201 105.661 19.2832C102.539 19.3766 99.4749 19.47 96.384 19.5679V18.6606C96.8554 18.5806 97.3046 18.5094 97.8783 18.4116C98.0073 13.3684 98.1407 8.29416 98.2697 3.20654C97.6737 2.88634 96.5086 3.57121 96.6242 2.14365C99.6083 1.95687 102.623 1.77009 105.661 1.57886V5.89711L105.47 5.97716C105.332 5.81706 105.158 5.67475 105.065 5.49241C104.789 4.94985 104.487 4.40729 104.305 3.82915C104.1 3.18431 103.718 3.04199 103.099 3.09091C102.468 3.14428 101.827 3.10425 101.08 3.10425C100.965 5.42126 100.849 7.69823 100.738 9.93074C102.606 10.3666 103.549 9.41931 104.011 7.71602C104.082 7.77384 104.153 7.8361 104.229 7.89391C104.109 9.52604 103.993 11.1626 103.864 12.9415L103.869 12.9371Z" fill="#04283A"/>
<path id="Vector_10" d="M81.3436 7.90276C81.228 9.53489 81.1079 11.1626 80.9879 12.8659C80.8189 12.7636 80.7166 12.7324 80.7077 12.688C80.3919 10.9447 79.0533 11.3182 77.7859 11.2826C77.6702 13.573 77.5546 15.8277 77.4345 18.1669C78.6887 18.0157 79.8939 17.8823 81.0946 17.7044C81.2458 17.6822 81.4237 17.442 81.4815 17.2686C81.6861 16.6905 81.8284 16.0945 82.0241 15.5164C82.0863 15.3385 82.2464 15.1962 82.3576 15.0361C82.4199 15.0628 82.4866 15.085 82.5489 15.1117C82.6156 16.4681 82.6867 17.829 82.7579 19.2876C79.6315 19.3855 76.5673 19.4789 73.4187 19.5767C73.4543 19.2254 73.4854 18.9452 73.5121 18.6606C74.0191 18.5761 74.4727 18.496 74.993 18.4071C75.122 13.3373 75.2465 8.28522 75.3755 3.14423C74.8552 3.12199 74.4015 3.09975 73.899 3.07752C73.8278 2.79734 73.7567 2.52162 73.6633 2.15694C76.723 1.96571 79.7204 1.77448 82.7801 1.58325V5.87482C82.7134 5.9104 82.6467 5.95042 82.58 5.986C82.4288 5.79477 82.2375 5.62133 82.1308 5.40342C81.824 4.79415 81.5794 4.1493 81.2458 3.55337C81.1302 3.3488 80.8367 3.13533 80.6099 3.12644C79.8538 3.08197 78.871 2.85071 78.404 3.22428C77.9949 3.55337 78.1194 4.59847 78.0749 5.32781C77.9771 6.88434 77.9193 8.44532 77.8481 9.93958C79.6982 10.3932 80.6054 9.37923 81.1124 7.72931C81.188 7.79157 81.2592 7.84939 81.3348 7.91165L81.3436 7.90276Z" fill="#04283A"/>
<path id="Vector_11" d="M72.516 1.64551C72.4493 2.05465 72.4093 2.2948 72.3648 2.58832C71.7556 2.65058 71.1552 2.71284 70.457 2.784C70.2346 7.79157 70.0167 12.7858 69.7943 17.8245H71.2441V19.3277H65.4094C65.3427 18.9141 65.2893 18.5894 65.2271 18.1981C65.7652 18.1358 66.2677 18.0824 66.8814 18.0113C67.2594 13.0259 67.6374 8.04506 68.0199 3.01525H66.3655V1.64551H72.5249H72.516Z" fill="#04283A"/>
<path id="Vector_12" d="M28.4529 37.6724V39.6603H26.5361V37.6724H28.4529Z" fill="#04283A"/>
<path id="Vector_13" d="M19.1667 37.6545H21.0123V39.6513H19.1667V37.6545Z" fill="#04283A"/>
<path id="Vector_14" d="M46.0682 24.6464C46.2105 24.5797 46.3528 24.513 46.4062 24.4863C46.7264 24.7176 47.0821 24.9755 47.3623 25.1756C47.3001 25.229 47.1266 25.3758 46.9532 25.5225L46.9443 25.5314C46.7619 25.6426 46.5752 25.7538 46.3928 25.865C46.4017 25.2646 45.9437 25.1712 45.4856 25.2157C45.659 25.0467 45.8636 24.8466 46.0682 24.6464Z" fill="#04283A"/>
<path id="Vector_15" d="M2.55221 18.9274C2.1742 19.1408 1.94294 19.3721 1.73392 19.3588C1.57382 19.3454 1.30254 18.9985 1.32922 18.8384C1.35591 18.6605 1.65832 18.4071 1.84955 18.3982C2.02744 18.3893 2.21867 18.6605 2.55665 18.9274H2.55221Z" fill="#04283A"/>
<path id="Vector_16" d="M4.57117 13.9955C4.23763 14.2312 4.01082 14.5025 3.85961 14.4669C3.64615 14.418 3.48605 14.1378 3.30371 13.9555C3.48605 13.7954 3.65949 13.5241 3.85072 13.5108C4.03306 13.4974 4.23763 13.7553 4.57117 13.9955Z" fill="#04283A"/>
<path id="Vector_17" d="M1.79162 22.4898C1.47586 22.7299 1.23571 23.0279 1.10674 22.9878C0.897724 22.9211 0.670914 22.6365 0.635336 22.4186C0.6131 22.2852 0.946644 21.9783 1.12453 21.9739C1.30687 21.9739 1.49365 22.2452 1.79162 22.4942V22.4898Z" fill="#04283A"/>
<path id="Vector_18" d="M45.7791 32.0735C45.5389 31.7444 45.2587 31.5087 45.2988 31.3753C45.3655 31.1574 45.6457 31.0107 45.8369 30.8328C45.997 31.0151 46.2638 31.1885 46.2816 31.3842C46.2949 31.5577 46.0281 31.7489 45.7791 32.0735Z" fill="#04283A"/>
<path id="Vector_19" d="M45.8148 19.6213C45.5613 19.2877 45.3033 19.092 45.3122 18.9186C45.3256 18.7274 45.588 18.5539 45.7436 18.3716C45.9304 18.5317 46.2284 18.6695 46.2639 18.8608C46.2995 19.0298 46.046 19.2566 45.8103 19.6257L45.8148 19.6213Z" fill="#04283A"/>
<path id="Vector_20" d="M42.4704 10.9001C42.1146 11.1581 41.9145 11.416 41.6966 11.4294C41.5454 11.4383 41.2385 11.1136 41.243 10.9491C41.2474 10.7667 41.5142 10.4777 41.701 10.451C41.8789 10.4243 42.0968 10.6689 42.466 10.9046L42.4704 10.9001Z" fill="#04283A"/>
<path id="Vector_21" d="M5.83433 11.7094C5.60307 11.3136 5.36292 11.0868 5.37626 10.8733C5.38516 10.7132 5.72315 10.442 5.89659 10.4553C6.06558 10.4686 6.31907 10.7755 6.33686 10.9667C6.3502 11.1446 6.09671 11.3448 5.83433 11.7094Z" fill="#04283A"/>
<path id="Vector_22" d="M10.3524 42.978C10.0144 43.2537 9.82764 43.5205 9.60973 43.5472C9.46742 43.565 9.15611 43.2448 9.15167 43.0714C9.14722 42.9024 9.41405 42.6133 9.60084 42.5822C9.77428 42.551 10.0011 42.7823 10.3524 42.9824V42.978Z" fill="#04283A"/>
<path id="Vector_23" d="M38.0322 7.9695C37.7475 7.61372 37.4807 7.42249 37.4852 7.24015C37.4852 7.05337 37.7431 6.74207 37.9165 6.72428C38.09 6.70649 38.4413 6.95998 38.4547 7.12008C38.4769 7.3291 38.2456 7.56925 38.0322 7.9695Z" fill="#04283A"/>
<path id="Vector_24" d="M12.7319 45.8419C12.4517 45.4905 12.1804 45.2993 12.1849 45.117C12.1893 44.9213 12.4562 44.73 12.6074 44.5388C12.7852 44.6989 13.0654 44.8412 13.1054 45.0325C13.141 45.2148 12.9276 45.4505 12.7363 45.8419H12.7319Z" fill="#04283A"/>
<path id="Vector_25" d="M35.644 45.1081C35.3104 45.3305 35.097 45.5796 34.9102 45.5573C34.7367 45.5395 34.461 45.2238 34.4743 45.0592C34.4877 44.8724 34.7723 44.5789 34.9457 44.57C35.1281 44.5611 35.3193 44.8413 35.644 45.1037V45.1081Z" fill="#04283A"/>
<path id="Vector_26" d="M17.4949 3.91363C17.2904 3.52228 17.068 3.29102 17.0991 3.10424C17.1347 2.91301 17.4238 2.7707 17.5972 2.6106C17.7484 2.80183 18.0153 2.98861 18.0197 3.17984C18.0241 3.36662 17.7618 3.55785 17.4905 3.91363H17.4949Z" fill="#04283A"/>
<path id="Vector_27" d="M44.4805 14.0177C44.1469 14.2356 43.9112 14.5025 43.7556 14.4624C43.5554 14.4135 43.4087 14.12 43.2441 13.9288C43.4265 13.7776 43.6088 13.5152 43.7956 13.5107C43.9824 13.5107 44.1692 13.7687 44.4849 14.0133L44.4805 14.0177Z" fill="#04283A"/>
<path id="Vector_28" d="M37.9831 42.293C38.2188 42.6843 38.4412 42.8933 38.4456 43.1157C38.4501 43.2714 38.1655 43.4359 38.0098 43.596C37.8275 43.4137 37.5518 43.258 37.4939 43.0401C37.4539 42.8933 37.7252 42.6665 37.9787 42.293H37.9831Z" fill="#04283A"/>
<path id="Vector_29" d="M29.996 2.38824C30.2451 2.73957 30.503 2.93969 30.4897 3.12203C30.4763 3.31326 30.2051 3.4867 30.0494 3.66904C29.8804 3.49559 29.6047 3.33994 29.578 3.14871C29.5513 2.96637 29.787 2.74846 29.996 2.38379V2.38824Z" fill="#04283A"/>
<path id="Vector_30" d="M40.9939 39.3399C41.3363 39.0819 41.5365 38.8151 41.7099 38.8329C41.8967 38.8507 42.0612 39.1397 42.2347 39.3087C42.0657 39.4777 41.91 39.7535 41.7232 39.7801C41.5498 39.8068 41.3363 39.5622 40.9939 39.3399Z" fill="#04283A"/>
<path id="Vector_31" d="M0.746544 25.3668C0.524182 25.3001 0.297374 25.2334 0.172852 25.1933C0.470815 24.9932 0.839935 24.7486 1.16014 24.5352C1.41807 24.7219 1.79164 24.9888 2.08516 25.1978C1.60189 25.2452 1.30838 25.4157 1.20461 25.7092C1.09343 25.6292 0.942224 25.518 0.791019 25.4113L0.746544 25.3668Z" fill="#04283A"/>
<path id="Vector_32" d="M8.89819 7.24905C9.21395 6.98222 9.42296 6.68425 9.56083 6.71538C9.77874 6.7643 9.94329 7.03114 10.1301 7.20902C9.96108 7.38247 9.81432 7.66264 9.62309 7.69377C9.45409 7.72046 9.24063 7.47141 8.89819 7.24905Z" fill="#04283A"/>
<path id="Vector_33" d="M34.9458 5.91467C34.7057 5.57224 34.4567 5.37211 34.47 5.19422C34.4833 5.00299 34.7457 4.82955 34.9014 4.64722C35.0793 4.81176 35.3728 4.95852 35.4039 5.14531C35.4306 5.32319 35.1815 5.54555 34.9458 5.91467Z" fill="#04283A"/>
<path id="Vector_34" d="M43.7824 35.5112C44.0137 35.8715 44.2627 36.0894 44.2405 36.2717C44.2183 36.4451 43.907 36.6986 43.7291 36.6986C43.569 36.6986 43.2977 36.3918 43.2888 36.2139C43.2799 36.0316 43.5378 35.8403 43.7824 35.5112Z" fill="#04283A"/>
<path id="Vector_35" d="M1.81834 27.7017C1.49814 27.9863 1.32025 28.271 1.13792 28.271C0.96003 28.271 0.662064 28.0041 0.63538 27.8218C0.613144 27.6617 0.871083 27.3459 1.04897 27.3104C1.22686 27.2748 1.45367 27.5016 1.81389 27.7017H1.81834Z" fill="#04283A"/>
<path id="Vector_36" d="M17.5084 46.3667C17.7707 46.7047 18.0287 46.896 18.0242 47.0739C18.0153 47.2606 17.753 47.4385 17.6017 47.6164C17.4283 47.4608 17.1392 47.3229 17.1081 47.1406C17.077 46.9627 17.3038 46.7359 17.5128 46.3623L17.5084 46.3667Z" fill="#04283A"/>
<path id="Vector_37" d="M1.82738 30.6013C2.05863 30.9793 2.29878 31.2017 2.28989 31.4107C2.281 31.5708 1.94746 31.8332 1.76957 31.8243C1.60057 31.8154 1.32484 31.5219 1.3115 31.344C1.30261 31.1617 1.56055 30.9615 1.82738 30.6013Z" fill="#04283A"/>
<path id="Vector_38" d="M27.1899 47.8522C26.8296 48.0835 26.6117 48.3281 26.4383 48.3014C26.2426 48.2703 26.087 47.9901 25.918 47.8211C26.0959 47.6565 26.2649 47.3719 26.4561 47.3541C26.6384 47.3363 26.843 47.5987 27.1943 47.8478L27.1899 47.8522Z" fill="#04283A"/>
<path id="Vector_39" d="M46.5175 28.5379C46.2684 28.1821 46.0238 27.982 46.0327 27.7996C46.046 27.6173 46.3173 27.4527 46.4774 27.2793C46.642 27.4438 46.9177 27.5906 46.9399 27.7729C46.9622 27.9553 46.7354 28.1687 46.513 28.5379H46.5175Z" fill="#04283A"/>
<path id="Vector_40" d="M26.416 1.69873C26.665 2.01893 26.9274 2.21016 26.9185 2.38805C26.9096 2.56149 26.6295 2.84611 26.4605 2.85056C26.287 2.85501 25.9802 2.59707 25.9579 2.42807C25.9357 2.25019 26.1847 2.04117 26.416 1.69873Z" fill="#04283A"/>
<path id="Vector_41" d="M21.1906 3.12201C20.9237 2.80181 20.648 2.61503 20.6614 2.45048C20.6791 2.25925 20.9371 1.96574 21.1105 1.95239C21.2795 1.93905 21.5775 2.20144 21.6175 2.38377C21.6531 2.54387 21.4085 2.76623 21.1906 3.11757V3.12201Z" fill="#04283A"/>
<path id="Vector_42" d="M13.3723 5.16314C13.0298 5.40774 12.8253 5.66567 12.6652 5.64344C12.4739 5.61675 12.1804 5.34103 12.1849 5.17203C12.1849 4.99414 12.4606 4.70952 12.6518 4.67839C12.8119 4.65171 13.0254 4.91409 13.3723 5.16314Z" fill="#04283A"/>
<path id="Vector_43" d="M21.8842 47.8433C21.5284 48.0746 21.3149 48.3192 21.137 48.297C20.9458 48.2703 20.7901 47.9901 20.6167 47.8211C20.7946 47.6566 20.9591 47.3764 21.1504 47.3541C21.3283 47.3364 21.5328 47.5943 21.8842 47.8433Z" fill="#04283A"/>
<path id="Vector_44" d="M4.58012 36.2849C4.19765 36.5028 3.97974 36.7251 3.8063 36.6985C3.61507 36.6629 3.46831 36.4005 3.29932 36.2315C3.47721 36.0714 3.64175 35.8046 3.82853 35.7868C4.00198 35.769 4.2021 36.0225 4.57567 36.2849H4.58012Z" fill="#04283A"/>
<path id="Vector_45" d="M30.7698 47.0648C30.4229 47.3227 30.2228 47.5851 30.0494 47.5718C29.8715 47.5584 29.6224 47.2916 29.578 47.1004C29.5513 46.9758 29.827 46.6556 29.9827 46.6468C30.1828 46.6379 30.3918 46.8513 30.7743 47.0692L30.7698 47.0648Z" fill="#04283A"/>
<path id="Vector_46" d="M47.1976 22.494C46.8552 22.7386 46.6373 23.001 46.4772 22.9743C46.2949 22.9387 46.0325 22.6452 46.0369 22.4629C46.0369 22.2939 46.326 22.0226 46.5128 21.9959C46.6729 21.9737 46.873 22.2405 47.1976 22.494Z" fill="#04283A"/>
<path id="Vector_47" d="M5.82953 38.5974C6.07857 38.9221 6.33651 39.1133 6.32762 39.2912C6.31872 39.4691 6.04299 39.7715 5.88289 39.7715C5.705 39.7715 5.4026 39.5135 5.38036 39.3357C5.35368 39.1578 5.60716 38.9398 5.82953 38.5974Z" fill="#04283A"/>
<path id="Vector_48" d="M39.7977 8.40967C39.9889 8.62313 40.2068 8.85884 40.4114 9.08565C40.2113 9.3169 39.98 9.57484 39.7977 9.78831C39.7087 9.60597 39.5664 9.32135 39.4019 8.99225C39.5175 8.81881 39.6687 8.59645 39.7977 8.40967Z" fill="#04283A"/>
<path id="Vector_49" d="M15.1377 3.61114C15.3111 3.85573 15.5024 4.01139 15.4757 4.10033C15.4268 4.26488 15.2489 4.3894 15.1199 4.52726C14.9776 4.37606 14.8086 4.23819 14.7108 4.0603C14.6885 4.02028 14.9109 3.84239 15.1377 3.60669V3.61114Z" fill="#04283A"/>
<path id="Vector_50" d="M33.1091 4.1048C32.7845 4.32272 32.6199 4.51395 32.4732 4.5006C32.3309 4.49171 32.1307 4.28714 32.0907 4.13593C32.064 4.0292 32.273 3.74902 32.362 3.75347C32.5532 3.76681 32.7311 3.91357 33.1091 4.1048Z" fill="#04283A"/>
<path id="Vector_51" d="M46.953 25.5227C46.9752 25.5494 46.993 25.5716 47.0152 25.5983C46.993 25.5761 46.9663 25.5538 46.9441 25.5316L46.953 25.5227Z" fill="#04283A"/>
<path id="Vector_52" d="M0.608788 25.5227C0.590999 25.5449 0.573209 25.5672 0.55542 25.5894C0.55542 25.5761 0.555422 25.5583 0.564316 25.5538C0.577658 25.5405 0.595447 25.536 0.613236 25.5272L0.608788 25.5227Z" fill="#04283A"/>
<path id="Vector_53" d="M0.786532 25.4114C0.728718 25.4514 0.666456 25.487 0.608643 25.527L0.613091 25.5314C0.657563 25.4781 0.702036 25.4247 0.742061 25.3713L0.786532 25.4158V25.4114Z" fill="#04283A"/>
<path id="Vector_54" d="M46.0727 24.6422C46.0727 24.6422 46.0327 24.6244 46.0149 24.6155C46.0327 24.6244 46.0505 24.6377 46.0683 24.6466L46.0727 24.6422Z" fill="#04283A"/>
</g>
</svg>
