<svg width="209" height="40" viewBox="0 0 209 40" fill="none" xmlns="http://www.w3.org/2000/svg">
<g id="Group 122">
<path id="Vector" d="M33.7135 0.483887C34.1827 5.88931 34.6339 11.0691 35.1032 16.5197C34.0473 16.5197 33.2352 16.4565 32.4411 16.5377C31.1326 16.6731 30.7626 16.0324 30.6904 14.8502C30.5189 12.1159 30.2482 9.38164 30.0226 6.65636C29.8241 6.60222 29.6165 6.54807 29.418 6.50295C29.0751 7.69413 28.7322 8.88531 28.3802 10.0765C27.8659 11.8001 27.4507 13.5598 26.7469 15.2022C26.4852 15.8068 25.5376 16.4024 24.8789 16.4385C24.3374 16.4655 23.426 15.7617 23.2365 15.1931C22.2529 12.2513 21.4407 9.24627 20.1322 6.28637C19.7893 9.66138 19.4464 13.0364 19.1035 16.4114H14.9524C15.4126 11.0872 15.8548 5.89834 16.315 0.547055H22.4695C23.2275 2.87527 24.0577 5.43811 25.0413 8.45215C25.9618 5.52835 26.7469 3.05575 27.559 0.492913H33.7135V0.483887Z" fill="#04283A"/>
<path id="Vector_2" d="M86.333 0.529298C86.6398 0.457105 86.7752 0.421008 86.9286 0.393935C90.1231 -0.219702 92.2167 0.827088 93.4711 4.02161C94.3013 6.14227 95.7993 7.99221 97.3153 10.4738V0.493201H101.611V16.2041C97.5951 17.1426 96.9273 16.8719 94.9781 13.5691C93.6606 11.3492 92.316 9.15632 90.6104 7.02663V16.3936H86.342V0.529298H86.333Z" fill="#04283A"/>
<path id="Vector_3" d="M90.1033 23.8411C93.4422 23.056 95.6801 23.9765 97.0247 27.2613C97.873 29.3368 99.362 31.1597 101.049 32.9735C101.049 31.4484 101.049 29.9144 101.049 28.3893C101.049 26.8642 101.049 25.4113 101.049 23.8141H105.228V39.5521C101.049 40.4364 100.571 40.2379 98.5498 36.8629C97.2142 34.6339 95.8967 32.405 94.2002 30.2753V39.6965H90.1033V23.8411Z" fill="#04283A"/>
<path id="Vector_4" d="M161.177 39.8498V23.5884C164.227 23.7508 167.34 23.5252 170.246 24.1749C173.973 25.0142 175.705 28.6058 175.191 33.0185C174.713 37.1335 172.231 39.543 167.963 39.8227C165.806 39.9581 163.631 39.8498 161.177 39.8498ZM165.436 36.2311C167.313 36.177 169.524 36.4657 170.11 34.4443C170.625 32.6756 170.661 30.3835 169.912 28.7772C169.425 27.7304 167.178 27.4868 165.436 26.7739V36.2311Z" fill="#04283A"/>
<path id="Vector_5" d="M150.736 39.985C145.574 39.9489 142.235 36.6371 142.316 31.6467C142.398 26.6654 145.818 23.4529 150.989 23.507C155.735 23.5521 159.119 27.0174 159.074 31.7641C159.02 36.7002 155.654 40.0211 150.736 39.985ZM154.959 31.8001C155.004 29.2734 153.154 27.2881 150.709 27.252C148.462 27.2159 146.522 29.1922 146.449 31.5926C146.368 34.1374 148.155 36.1317 150.619 36.249C153.028 36.3573 154.914 34.4262 154.959 31.8092V31.8001Z" fill="#04283A"/>
<path id="Vector_6" d="M132.859 39.9852C127.779 39.9401 124.593 36.6283 124.656 31.4755C124.72 26.5935 128.14 23.417 133.22 23.5072C138.066 23.5975 141.405 26.9454 141.405 31.7101C141.405 36.6824 137.949 40.0303 132.85 39.9852H132.859ZM128.78 31.7282C128.78 34.3813 130.567 36.2853 133.013 36.2673C135.35 36.2492 137.335 34.0925 137.272 31.6379C137.209 29.1473 135.431 27.3335 133.022 27.3154C130.45 27.2974 128.771 29.048 128.78 31.7282Z" fill="#04283A"/>
<path id="Vector_7" d="M104.85 0.592277C107.666 0.592277 110.373 0.411791 113.044 0.637393C115.959 0.890067 117.935 2.74903 118.423 5.55552C118.784 7.62204 118.72 9.91415 118.224 11.9536C117.502 14.9045 115.03 16.2039 112.151 16.4386C109.777 16.6281 107.377 16.4747 104.85 16.4747V0.592277ZM109.092 4.09362V12.8019C112.972 13.0275 114.47 11.746 114.479 8.3981C114.479 5.10431 112.927 3.83192 109.092 4.10264V4.09362Z" fill="#04283A"/>
<path id="Vector_8" d="M66.6155 10.3382H60.5693V16.3933H56.4634V0.483858H60.4791V6.48487H66.5162V0.456787H70.6312V16.3482H66.6155V10.3291V10.3382Z" fill="#04283A"/>
<path id="Vector_9" d="M175.527 16.6732C173.262 16.0776 171.15 17.5756 169.77 15.3647C168.75 13.7313 167.775 12.0618 166.377 10.4556V16.3754H162.189V0.402735C164.617 0.402735 167.081 0.258345 169.517 0.447851C171.647 0.610285 173.073 1.94585 173.587 4.05748C174.119 6.24131 173.19 7.92881 170.582 9.56217C172.098 11.746 173.614 13.9298 175.518 16.6732H175.527ZM165.799 4.27406C166.277 5.21256 166.53 6.59325 167.288 6.97227C167.992 7.3242 169.67 7.12567 169.616 5.47426C169.535 3.24532 167.857 3.80481 165.799 4.27406Z" fill="#04283A"/>
<path id="Vector_10" d="M120.787 0.483887H124.712C124.712 3.22721 124.667 5.97053 124.721 8.71385C124.785 12.1069 125.398 13.1356 127.356 12.9552C130.145 12.6935 129.585 10.3923 129.667 8.6597C129.793 5.97955 129.703 3.29038 129.703 0.492913H133.7C133.7 4.39132 133.962 8.35289 133.619 12.2513C133.348 15.2744 130.84 16.6821 127.077 16.655C123.359 16.628 121.148 15.3105 120.877 12.1881C120.543 8.35289 120.796 4.46351 120.796 0.492913L120.787 0.483887Z" fill="#04283A"/>
<path id="Vector_11" d="M48.3034 28.7412C47.1302 29.1653 45.9661 29.5894 44.6937 30.0497C44.3057 29.5533 43.9628 28.9938 43.5026 28.5426C41.9053 26.9815 39.0717 26.9003 37.5557 28.3351C36.0035 29.815 35.8592 33.1088 37.2759 34.7151C38.8552 36.5109 41.5624 37.0343 43.0423 35.2385C44.8381 33.0547 46.3451 33.8308 48.1319 34.7602C47.1844 38.406 43.8184 40.3552 39.2161 39.931C35.3267 39.5701 32.3849 36.4568 32.1773 32.4952C31.9517 28.0373 34.2078 24.6352 37.9708 23.7689C42.7085 22.677 46.6881 24.545 48.3034 28.7321V28.7412Z" fill="#04283A"/>
<path id="Vector_12" d="M88.4065 39.8225C86.2769 39.7232 83.8674 40.77 83.4794 37.4582C83.4523 37.2055 82.6582 36.8806 82.216 36.8626C80.4293 36.7904 78.6335 36.8355 76.7926 36.8355C76.4316 37.8462 76.1157 38.7396 75.7548 39.7413H71.5315C72.8039 36.2489 74.0673 32.7837 75.3307 29.3184C75.6375 28.4792 76.0526 27.658 76.224 26.7917C76.7023 24.3733 77.9115 23.3265 80.5375 23.6423C82.0536 23.8228 82.8387 24.0303 83.3621 25.6637C84.6615 29.7606 86.2859 33.7583 87.7748 37.8101C88.0004 38.4237 88.1719 39.0554 88.4065 39.8315V39.8225ZM82.0265 33.3251C81.3497 31.3579 80.7541 29.6704 79.9961 27.4595C79.202 29.7155 78.5974 31.4211 77.9296 33.3251H82.0355H82.0265Z" fill="#04283A"/>
<path id="Vector_13" d="M195.326 11.8091C196.589 11.4932 197.862 11.1774 198.908 10.9157C199.874 11.782 200.605 12.7747 201.58 13.1898C202.13 13.4244 203.087 12.7025 203.854 12.4137C203.484 11.773 203.267 10.8525 202.708 10.5367C201.489 9.85086 200.1 9.47184 198.782 8.94845C196.851 8.19042 195.741 6.82779 195.795 4.69811C195.849 2.54135 197.185 1.29603 199.035 0.556056C202.843 -0.969014 206.868 0.736539 208.23 4.52665C206.561 4.76128 204.964 6.39464 203.348 4.03935C202.951 3.46181 201.3 3.73253 200.235 3.61522C200.109 3.93106 199.973 4.2469 199.847 4.56274C200.488 5.10419 201.065 5.79002 201.796 6.16001C202.996 6.7556 204.359 7.0173 205.541 7.63996C207.274 8.55139 208.447 9.91403 208.284 12.0708C208.122 14.2997 206.777 15.5721 204.837 16.3121C200.686 17.8913 196.192 15.8248 195.317 11.8001L195.326 11.8091Z" fill="#04283A"/>
<path id="Vector_14" d="M135.397 11.8002C136.751 11.4844 138.041 11.1776 138.881 10.979C140.099 11.9085 140.965 12.7929 142.012 13.2802C142.427 13.4697 143.248 12.8019 143.88 12.5222C143.555 11.8724 143.411 10.9249 142.887 10.6181C141.669 9.92323 140.252 9.58031 138.962 9.0118C137.238 8.24475 135.848 7.08065 135.921 5.03218C135.993 3.06493 136.823 1.47669 138.835 0.655501C142.535 -0.85152 146.515 0.520138 148.32 4.03051C146.524 5.57362 145.333 5.53753 143.763 4.25611C143.158 3.75978 142.147 3.66052 141.308 3.62443C140.974 3.60638 140.397 4.22904 140.324 4.6261C140.261 4.96901 140.685 5.6007 141.046 5.77215C142.463 6.43994 143.943 6.97236 145.396 7.5499C147.426 8.35304 148.545 9.81494 148.401 12.0258C148.247 14.2909 146.948 15.7618 144.791 16.3574C140.667 17.4854 135.776 15.8611 135.406 11.8093L135.397 11.8002Z" fill="#04283A"/>
<path id="Vector_15" d="M0.577393 11.773C1.84979 11.4752 3.14926 11.1774 3.99752 10.9788C5.20675 11.9173 6.05501 12.8288 7.11083 13.271C7.57105 13.4605 8.43737 12.6844 9.11417 12.3415C8.77126 11.7549 8.5637 10.9247 8.04933 10.645C6.88523 9.99522 5.57673 9.59816 4.32239 9.11989C2.03027 8.23553 0.839091 6.47583 1.10981 4.34614C1.38054 2.21646 2.98682 0.673346 5.30601 0.330431C9.65562 -0.319303 12.3267 0.998214 13.5089 4.49053C11.7853 4.82442 10.1339 6.38559 8.51858 4.02128C8.21177 3.57007 6.8762 3.72349 6.03696 3.77763C5.81136 3.79568 5.36016 4.69809 5.45942 4.80638C5.95575 5.36587 6.52426 5.92536 7.19204 6.25023C8.25689 6.78265 9.40295 7.14361 10.5219 7.56774C12.6697 8.40698 13.6804 9.96815 13.5269 12.2603C13.3826 14.5253 11.9658 15.7436 9.94439 16.3301C5.28796 17.6837 0.541297 15.3465 0.595441 11.782L0.577393 11.773Z" fill="#04283A"/>
<path id="Vector_16" d="M60.7566 23.769H70.4484V27.2704H65.025C64.5467 31.9088 68.4 28.8767 69.7807 30.4108V33.479H65.0701V36.1952H70.4394V39.7326H60.7476V23.769H60.7566Z" fill="#04283A"/>
<path id="Vector_17" d="M193.837 0.520256V3.94038H188.323V6.4942H193.016V10.2031H188.296V12.802H193.774V16.3756H184.1V0.51123H193.846L193.837 0.520256Z" fill="#04283A"/>
<path id="Vector_18" d="M123.673 23.7959V27.2882H117.987V29.842H122.77V33.4517H117.942V39.6963H113.827V23.7869H123.673V23.7959Z" fill="#04283A"/>
<path id="Vector_19" d="M156.938 16.4115H152.777V4.08456C151.442 4.02139 150.278 3.96725 149.023 3.91311V0.547119H160.439V3.89505C159.383 3.9492 158.291 4.01237 156.938 4.08456V16.4205V16.4115Z" fill="#04283A"/>
<path id="Vector_20" d="M54.4691 3.97648H51.0489V16.4117H47.0332V4.08477C45.7247 4.0216 44.6418 3.97648 43.4236 3.91331V0.51123H54.4781V3.97648H54.4691Z" fill="#04283A"/>
<path id="Vector_21" d="M58.9337 36.186V39.7415H50.3066V23.8591H54.2321V36.1951H58.9337V36.186Z" fill="#04283A"/>
<path id="Vector_22" d="M83.0661 16.4475H79.1587V0.483887H83.0661V16.4475Z" fill="#04283A"/>
<path id="Vector_23" d="M41.5378 16.4746H37.5942V0.538086H41.5378V16.4746Z" fill="#04283A"/>
<path id="Vector_24" d="M180.779 16.4385H176.908V0.49292H180.779V16.4385Z" fill="#04283A"/>
</g>
</svg>
